<svg xmlns="http://www.w3.org/2000/svg" xmlns:xlink="http://www.w3.org/1999/xlink" width="174" zoomAndPan="magnify" viewBox="0 0 130.5 37.5" height="50" preserveAspectRatio="xMidYMid meet" version="1.0"><defs><g/><clipPath id="86d23968d5"><path d="M 101.117188 5.769531 L 126.015625 5.769531 L 126.015625 30.667969 L 101.117188 30.667969 Z M 101.117188 5.769531 " clip-rule="nonzero"/></clipPath></defs><g clip-path="url(#86d23968d5)"><path fill="#ffd740" d="M 113.566406 5.769531 C 106.691406 5.769531 101.117188 11.34375 101.117188 18.21875 C 101.117188 25.097656 106.691406 30.667969 113.566406 30.667969 C 120.441406 30.667969 126.015625 25.097656 126.015625 18.21875 C 126.015625 11.34375 120.441406 5.769531 113.566406 5.769531 " fill-opacity="1" fill-rule="nonzero"/></g><path fill="#f57f17" d="M 113.566406 7.640625 C 107.722656 7.640625 102.984375 12.375 102.984375 18.21875 C 102.984375 24.0625 107.722656 28.800781 113.566406 28.800781 C 119.410156 28.800781 124.148438 24.0625 124.148438 18.21875 C 124.148438 12.375 119.410156 7.640625 113.566406 7.640625 " fill-opacity="1" fill-rule="nonzero"/><path fill="#ffab00" d="M 113.566406 8.414062 C 107.722656 8.414062 102.984375 12.375 102.984375 18.21875 C 102.984375 24.0625 107.722656 28.800781 113.566406 28.800781 C 119.410156 28.800781 124.148438 24.0625 124.148438 18.21875 C 124.148438 12.375 119.410156 8.414062 113.566406 8.414062 " fill-opacity="1" fill-rule="nonzero"/><path fill="#f57f17" d="M 117 19.25 C 116.507812 18.660156 115.574219 18.179688 114.207031 17.8125 C 114.125 17.789062 113.148438 17.480469 112.96875 17.398438 C 112.597656 17.242188 112.324219 17.03125 112.140625 16.773438 C 112.042969 16.636719 111.972656 16.492188 111.929688 16.34375 C 111.925781 16.339844 111.925781 16.328125 111.921875 16.320312 C 111.914062 16.300781 111.910156 16.28125 111.90625 16.261719 C 111.871094 16.140625 111.851562 16.011719 111.851562 15.882812 C 111.851562 15.019531 112.613281 14.324219 113.546875 14.324219 C 114.46875 14.324219 115.214844 14.996094 115.242188 15.835938 L 117.394531 15.554688 L 117.394531 14.777344 L 116.753906 13.949219 L 116.753906 13.953125 C 116.636719 13.792969 116.511719 13.644531 116.371094 13.507812 C 115.832031 13 115.113281 12.691406 114.207031 12.582031 L 114.207031 11.410156 L 112.96875 11.410156 L 112.96875 12.582031 C 111.992188 12.679688 111.203125 13.046875 110.613281 13.679688 C 110.027344 14.316406 109.730469 15.101562 109.730469 16.03125 C 109.730469 16.957031 109.992188 17.738281 110.511719 18.386719 C 111.035156 19.03125 111.851562 19.515625 112.96875 19.835938 C 113.148438 19.894531 114.09375 20.167969 114.207031 20.203125 C 114.71875 20.351562 115.089844 20.5625 115.3125 20.835938 C 115.539062 21.113281 115.652344 21.445312 115.652344 21.828125 C 115.652344 22.253906 115.519531 22.625 115.25 22.941406 C 114.980469 23.253906 114.632812 23.453125 114.207031 23.535156 C 113.734375 23.613281 113.207031 23.550781 112.96875 23.414062 C 112.664062 23.265625 112.382812 23.027344 112.132812 22.699219 C 111.878906 22.367188 111.710938 21.972656 111.617188 21.515625 L 109.390625 20.980469 L 109.390625 21.757812 C 109.5625 22.878906 109.953125 23.746094 110.570312 24.363281 C 111.183594 24.976562 111.984375 25.34375 112.96875 25.464844 L 112.96875 26.585938 L 114.207031 26.585938 L 114.207031 25.421875 C 115.316406 25.261719 116.183594 24.832031 116.808594 24.125 C 117.429688 23.417969 117.742188 22.546875 117.742188 21.515625 C 117.742188 20.59375 117.496094 19.839844 117 19.25 " fill-opacity="1" fill-rule="nonzero"/><path fill="#ffd740" d="M 114.207031 17.035156 C 114.125 17.011719 113.148438 16.703125 112.96875 16.621094 C 112.597656 16.464844 112.324219 16.253906 112.140625 15.996094 C 112.042969 15.859375 111.972656 15.714844 111.929688 15.566406 C 111.925781 15.558594 111.925781 15.550781 111.921875 15.546875 C 111.914062 15.523438 111.910156 15.503906 111.90625 15.484375 C 111.871094 15.363281 111.851562 15.234375 111.851562 15.105469 C 111.851562 14.242188 112.613281 13.546875 113.546875 13.546875 C 114.46875 13.546875 115.214844 14.21875 115.242188 15.058594 L 117.394531 14.777344 C 117.246094 13.925781 116.902344 13.242188 116.371094 12.734375 C 115.832031 12.222656 115.113281 11.910156 114.207031 11.804688 L 114.207031 10.632812 L 112.96875 10.632812 L 112.96875 11.804688 C 111.992188 11.902344 111.203125 12.269531 110.613281 12.902344 C 110.027344 13.539062 109.730469 14.320312 109.730469 15.253906 C 109.730469 16.179688 109.992188 16.960938 110.511719 17.609375 C 111.035156 18.257812 111.851562 18.738281 112.96875 19.058594 C 113.148438 19.117188 114.09375 19.390625 114.207031 19.425781 C 114.71875 19.574219 115.089844 19.785156 115.3125 20.058594 C 115.539062 20.335938 115.652344 20.667969 115.652344 21.046875 C 115.652344 21.472656 115.519531 21.847656 115.25 22.164062 C 114.980469 22.476562 114.632812 22.675781 114.207031 22.757812 C 113.734375 22.835938 113.207031 22.773438 112.96875 22.636719 C 112.664062 22.488281 112.382812 22.25 112.132812 21.921875 C 111.878906 21.589844 111.710938 21.195312 111.617188 20.738281 L 109.390625 20.980469 C 109.5625 22.101562 109.953125 22.96875 110.570312 23.585938 C 111.183594 24.199219 111.984375 24.566406 112.96875 24.6875 L 112.96875 25.808594 L 114.207031 25.808594 L 114.207031 24.644531 C 115.316406 24.484375 116.183594 24.054688 116.808594 23.347656 C 117.429688 22.640625 117.742188 21.769531 117.742188 20.738281 C 117.742188 19.816406 117.496094 19.0625 117 18.472656 C 116.507812 17.882812 115.574219 17.402344 114.207031 17.035156 " fill-opacity="1" fill-rule="nonzero"/><path fill="#ffffff" d="M 109.738281 9.941406 C 107.585938 10.335938 107.265625 10.65625 106.867188 12.808594 C 106.472656 10.65625 106.148438 10.335938 104 9.941406 C 106.148438 9.542969 106.472656 9.222656 106.867188 7.070312 C 107.265625 9.222656 107.585938 9.542969 109.738281 9.941406 " fill-opacity="1" fill-rule="nonzero"/><g fill="#000000" fill-opacity="1"><g transform="translate(5.566924, 27.620655)"><g><path d="M 5.96875 0.1875 C 4.875 0.1875 3.929688 -0.046875 3.140625 -0.515625 C 2.359375 -0.984375 1.753906 -1.640625 1.328125 -2.484375 C 0.910156 -3.328125 0.703125 -4.300781 0.703125 -5.40625 C 0.703125 -6.507812 0.910156 -7.484375 1.328125 -8.328125 C 1.753906 -9.179688 2.359375 -9.84375 3.140625 -10.3125 C 3.929688 -10.789062 4.875 -11.03125 5.96875 -11.03125 C 7.269531 -11.03125 8.335938 -10.707031 9.171875 -10.0625 C 10.003906 -9.414062 10.519531 -8.507812 10.71875 -7.34375 L 8.546875 -7.34375 C 8.410156 -7.9375 8.117188 -8.398438 7.671875 -8.734375 C 7.234375 -9.066406 6.65625 -9.234375 5.9375 -9.234375 C 4.9375 -9.234375 4.148438 -8.890625 3.578125 -8.203125 C 3.015625 -7.523438 2.734375 -6.59375 2.734375 -5.40625 C 2.734375 -4.21875 3.015625 -3.285156 3.578125 -2.609375 C 4.148438 -1.929688 4.9375 -1.59375 5.9375 -1.59375 C 6.65625 -1.59375 7.234375 -1.75 7.671875 -2.0625 C 8.117188 -2.382812 8.410156 -2.820312 8.546875 -3.375 L 10.71875 -3.375 C 10.519531 -2.257812 10.003906 -1.382812 9.171875 -0.75 C 8.335938 -0.125 7.269531 0.1875 5.96875 0.1875 Z M 5.96875 0.1875 "/></g></g></g><g fill="#000000" fill-opacity="1"><g transform="translate(16.987443, 27.620655)"><g><path d="M 4.703125 0.1875 C 3.953125 0.1875 3.28125 0.015625 2.6875 -0.328125 C 2.09375 -0.671875 1.625 -1.144531 1.28125 -1.75 C 0.9375 -2.351562 0.765625 -3.050781 0.765625 -3.84375 C 0.765625 -4.632812 0.9375 -5.332031 1.28125 -5.9375 C 1.632812 -6.539062 2.109375 -7.015625 2.703125 -7.359375 C 3.296875 -7.703125 3.96875 -7.875 4.71875 -7.875 C 5.445312 -7.875 6.109375 -7.703125 6.703125 -7.359375 C 7.296875 -7.015625 7.765625 -6.539062 8.109375 -5.9375 C 8.460938 -5.332031 8.640625 -4.632812 8.640625 -3.84375 C 8.640625 -3.050781 8.460938 -2.351562 8.109375 -1.75 C 7.765625 -1.144531 7.289062 -0.671875 6.6875 -0.328125 C 6.09375 0.015625 5.429688 0.1875 4.703125 0.1875 Z M 4.703125 -1.53125 C 5.210938 -1.53125 5.660156 -1.722656 6.046875 -2.109375 C 6.429688 -2.503906 6.625 -3.082031 6.625 -3.84375 C 6.625 -4.601562 6.429688 -5.175781 6.046875 -5.5625 C 5.660156 -5.957031 5.21875 -6.15625 4.71875 -6.15625 C 4.1875 -6.15625 3.734375 -5.957031 3.359375 -5.5625 C 2.984375 -5.175781 2.796875 -4.601562 2.796875 -3.84375 C 2.796875 -3.082031 2.984375 -2.503906 3.359375 -2.109375 C 3.734375 -1.722656 4.179688 -1.53125 4.703125 -1.53125 Z M 4.703125 -1.53125 "/></g></g></g><g fill="#000000" fill-opacity="1"><g transform="translate(26.377997, 27.620655)"><g><path d="M 2.078125 -8.875 C 1.710938 -8.875 1.414062 -8.984375 1.1875 -9.203125 C 0.957031 -9.421875 0.84375 -9.695312 0.84375 -10.03125 C 0.84375 -10.363281 0.957031 -10.632812 1.1875 -10.84375 C 1.414062 -11.050781 1.710938 -11.15625 2.078125 -11.15625 C 2.441406 -11.15625 2.738281 -11.050781 2.96875 -10.84375 C 3.195312 -10.632812 3.3125 -10.363281 3.3125 -10.03125 C 3.3125 -9.695312 3.195312 -9.421875 2.96875 -9.203125 C 2.738281 -8.984375 2.441406 -8.875 2.078125 -8.875 Z M 1.078125 0 L 1.078125 -7.6875 L 3.0625 -7.6875 L 3.0625 0 Z M 1.078125 0 "/></g></g></g><g fill="#000000" fill-opacity="1"><g transform="translate(30.515424, 27.620655)"><g><path d="M 1 0 L 1 -7.6875 L 2.765625 -7.6875 L 2.90625 -6.390625 C 3.144531 -6.835938 3.488281 -7.195312 3.9375 -7.46875 C 4.394531 -7.738281 4.925781 -7.875 5.53125 -7.875 C 6.476562 -7.875 7.21875 -7.570312 7.75 -6.96875 C 8.28125 -6.375 8.546875 -5.5 8.546875 -4.34375 L 8.546875 0 L 6.5625 0 L 6.5625 -4.15625 C 6.5625 -4.8125 6.425781 -5.316406 6.15625 -5.671875 C 5.882812 -6.023438 5.460938 -6.203125 4.890625 -6.203125 C 4.335938 -6.203125 3.878906 -6.003906 3.515625 -5.609375 C 3.160156 -5.210938 2.984375 -4.664062 2.984375 -3.96875 L 2.984375 0 Z M 1 0 "/></g></g></g><g fill="#000000" fill-opacity="1"><g transform="translate(39.936971, 27.620655)"><g><path d="M 1.046875 0 L 1.046875 -10.84375 L 5.03125 -10.84375 C 5.90625 -10.84375 6.625 -10.695312 7.1875 -10.40625 C 7.75 -10.113281 8.164062 -9.71875 8.4375 -9.21875 C 8.71875 -8.71875 8.859375 -8.160156 8.859375 -7.546875 C 8.859375 -6.890625 8.6875 -6.285156 8.34375 -5.734375 C 8 -5.179688 7.460938 -4.785156 6.734375 -4.546875 L 8.96875 0 L 6.703125 0 L 4.6875 -4.28125 L 3.03125 -4.28125 L 3.03125 0 Z M 3.03125 -5.734375 L 4.90625 -5.734375 C 5.570312 -5.734375 6.054688 -5.894531 6.359375 -6.21875 C 6.671875 -6.539062 6.828125 -6.960938 6.828125 -7.484375 C 6.828125 -8.003906 6.675781 -8.414062 6.375 -8.71875 C 6.070312 -9.03125 5.578125 -9.1875 4.890625 -9.1875 L 3.03125 -9.1875 Z M 3.03125 -5.734375 "/></g></g></g><g fill="#000000" fill-opacity="1"><g transform="translate(49.590967, 27.620655)"><g><path d="M 5.234375 0.1875 C 4.441406 0.1875 3.722656 0.03125 3.078125 -0.28125 C 2.441406 -0.601562 1.929688 -1.082031 1.546875 -1.71875 C 1.171875 -2.363281 0.984375 -3.175781 0.984375 -4.15625 L 0.984375 -10.84375 L 2.96875 -10.84375 L 2.96875 -4.140625 C 2.96875 -3.296875 3.171875 -2.664062 3.578125 -2.25 C 3.992188 -1.832031 4.5625 -1.625 5.28125 -1.625 C 6 -1.625 6.5625 -1.832031 6.96875 -2.25 C 7.382812 -2.664062 7.59375 -3.296875 7.59375 -4.140625 L 7.59375 -10.84375 L 9.578125 -10.84375 L 9.578125 -4.15625 C 9.578125 -3.175781 9.378906 -2.363281 8.984375 -1.71875 C 8.597656 -1.082031 8.078125 -0.601562 7.421875 -0.28125 C 6.765625 0.03125 6.035156 0.1875 5.234375 0.1875 Z M 5.234375 0.1875 "/></g></g></g><g fill="#000000" fill-opacity="1"><g transform="translate(60.143722, 27.620655)"><g><path d="M 1.046875 0 L 1.046875 -10.84375 L 5.0625 -10.84375 C 5.9375 -10.84375 6.65625 -10.695312 7.21875 -10.40625 C 7.789062 -10.125 8.210938 -9.726562 8.484375 -9.21875 C 8.765625 -8.71875 8.90625 -8.148438 8.90625 -7.515625 C 8.90625 -6.921875 8.769531 -6.367188 8.5 -5.859375 C 8.238281 -5.359375 7.820312 -4.957031 7.25 -4.65625 C 6.6875 -4.351562 5.957031 -4.203125 5.0625 -4.203125 L 3.03125 -4.203125 L 3.03125 0 Z M 3.03125 -5.8125 L 4.9375 -5.8125 C 5.632812 -5.8125 6.132812 -5.960938 6.4375 -6.265625 C 6.738281 -6.578125 6.890625 -6.992188 6.890625 -7.515625 C 6.890625 -8.054688 6.738281 -8.476562 6.4375 -8.78125 C 6.132812 -9.082031 5.632812 -9.234375 4.9375 -9.234375 L 3.03125 -9.234375 Z M 3.03125 -5.8125 "/></g></g></g><g fill="#000000" fill-opacity="1"><g transform="translate(69.549782, 27.620655)"><g><path d="M 1.046875 0 L 1.046875 -10.84375 L 3.03125 -10.84375 L 3.03125 0 Z M 1.046875 0 "/></g></g></g><g fill="#000000" fill-opacity="1"><g transform="translate(73.640727, 27.620655)"><g><path d="M 0.359375 0 L 4.328125 -10.84375 L 6.5625 -10.84375 L 10.53125 0 L 8.421875 0 L 7.546875 -2.515625 L 3.3125 -2.515625 L 2.4375 0 Z M 3.859375 -4.0625 L 7 -4.0625 L 5.421875 -8.578125 Z M 3.859375 -4.0625 "/></g></g></g><g fill="#000000" fill-opacity="1"><g transform="translate(84.503406, 27.620655)"><g><path d="M 1.046875 0 L 1.046875 -10.84375 L 3.03125 -10.84375 L 3.03125 -6.34375 L 7.90625 -6.34375 L 7.90625 -10.84375 L 9.890625 -10.84375 L 9.890625 0 L 7.90625 0 L 7.90625 -4.734375 L 3.03125 -4.734375 L 3.03125 0 Z M 1.046875 0 "/></g></g></g></svg>