<svg xmlns="http://www.w3.org/2000/svg" xmlns:xlink="http://www.w3.org/1999/xlink" width="174" zoomAndPan="magnify" viewBox="0 0 126 74.999997" height="26
" preserveAspectRatio="xMidYMid meet" version="1.0"><defs><g/><clipPath id="0549a4783e"><path d="M 91.769531 26.398438 L 112.769531 26.398438 L 112.769531 47.398438 L 91.769531 47.398438 Z M 91.769531 26.398438 " clip-rule="nonzero"/></clipPath></defs><g clip-path="url(#0549a4783e)"><path fill="#ffd740" d="M 102.269531 26.398438 C 96.46875 26.398438 91.769531 31.101562 91.769531 36.898438 C 91.769531 42.699219 96.46875 47.398438 102.269531 47.398438 C 108.066406 47.398438 112.769531 42.699219 112.769531 36.898438 C 112.769531 31.101562 108.066406 26.398438 102.269531 26.398438 " fill-opacity="1" fill-rule="nonzero"/></g><path fill="#f57f17" d="M 102.269531 27.976562 C 97.339844 27.976562 93.34375 31.972656 93.34375 36.898438 C 93.34375 41.828125 97.339844 45.824219 102.269531 45.824219 C 107.199219 45.824219 111.195312 41.828125 111.195312 36.898438 C 111.195312 31.972656 107.199219 27.976562 102.269531 27.976562 " fill-opacity="1" fill-rule="nonzero"/><path fill="#ffab00" d="M 102.269531 28.628906 C 97.339844 28.628906 93.34375 31.972656 93.34375 36.898438 C 93.34375 41.828125 97.339844 45.824219 102.269531 45.824219 C 107.199219 45.824219 111.195312 41.828125 111.195312 36.898438 C 111.195312 31.972656 107.199219 28.628906 102.269531 28.628906 " fill-opacity="1" fill-rule="nonzero"/><path fill="#f57f17" d="M 105.164062 37.769531 C 104.75 37.269531 103.960938 36.867188 102.808594 36.554688 C 102.742188 36.535156 101.917969 36.277344 101.765625 36.207031 C 101.453125 36.074219 101.21875 35.898438 101.066406 35.679688 C 100.984375 35.5625 100.925781 35.445312 100.886719 35.316406 C 100.886719 35.3125 100.882812 35.304688 100.882812 35.296875 C 100.875 35.28125 100.871094 35.261719 100.867188 35.246094 C 100.839844 35.144531 100.824219 35.039062 100.824219 34.925781 C 100.824219 34.199219 101.464844 33.613281 102.253906 33.613281 C 103.027344 33.613281 103.660156 34.179688 103.679688 34.890625 L 105.496094 34.652344 L 105.496094 33.996094 L 104.957031 33.296875 L 104.957031 33.300781 C 104.859375 33.164062 104.753906 33.039062 104.632812 32.925781 C 104.179688 32.496094 103.574219 32.234375 102.808594 32.144531 L 102.808594 31.15625 L 101.765625 31.15625 L 101.765625 32.144531 C 100.9375 32.226562 100.277344 32.535156 99.777344 33.070312 C 99.28125 33.605469 99.035156 34.269531 99.035156 35.054688 C 99.035156 35.832031 99.253906 36.496094 99.691406 37.039062 C 100.132812 37.585938 100.824219 37.992188 101.765625 38.261719 C 101.914062 38.3125 102.714844 38.542969 102.808594 38.570312 C 103.242188 38.695312 103.554688 38.875 103.742188 39.105469 C 103.933594 39.339844 104.027344 39.621094 104.027344 39.941406 C 104.027344 40.300781 103.914062 40.613281 103.6875 40.882812 C 103.460938 41.148438 103.167969 41.3125 102.808594 41.382812 C 102.410156 41.449219 101.964844 41.394531 101.765625 41.28125 C 101.507812 41.15625 101.269531 40.953125 101.058594 40.675781 C 100.847656 40.394531 100.703125 40.066406 100.625 39.679688 L 98.746094 39.226562 L 98.746094 39.882812 C 98.890625 40.828125 99.222656 41.5625 99.738281 42.082031 C 100.257812 42.597656 100.933594 42.910156 101.765625 43.007812 L 101.765625 43.953125 L 102.808594 43.953125 L 102.808594 42.972656 C 103.746094 42.839844 104.476562 42.476562 105.003906 41.878906 C 105.527344 41.285156 105.792969 40.550781 105.792969 39.679688 C 105.792969 38.902344 105.582031 38.265625 105.164062 37.769531 " fill-opacity="1" fill-rule="nonzero"/><path fill="#ffd740" d="M 102.808594 35.898438 C 102.742188 35.878906 101.917969 35.621094 101.765625 35.550781 C 101.453125 35.417969 101.21875 35.242188 101.066406 35.023438 C 100.984375 34.90625 100.925781 34.789062 100.886719 34.660156 C 100.886719 34.65625 100.882812 34.648438 100.882812 34.644531 C 100.875 34.625 100.871094 34.609375 100.867188 34.589844 C 100.839844 34.488281 100.824219 34.382812 100.824219 34.269531 C 100.824219 33.546875 101.464844 32.960938 102.253906 32.960938 C 103.027344 32.960938 103.660156 33.527344 103.679688 34.234375 L 105.496094 33.996094 C 105.371094 33.277344 105.082031 32.699219 104.632812 32.269531 C 104.179688 31.84375 103.574219 31.578125 102.808594 31.488281 L 102.808594 30.5 L 101.765625 30.5 L 101.765625 31.488281 C 100.9375 31.570312 100.277344 31.878906 99.777344 32.414062 C 99.28125 32.949219 99.035156 33.613281 99.035156 34.398438 C 99.035156 35.179688 99.253906 35.839844 99.691406 36.382812 C 100.132812 36.929688 100.824219 37.335938 101.765625 37.605469 C 101.914062 37.65625 102.714844 37.886719 102.808594 37.917969 C 103.242188 38.039062 103.554688 38.21875 103.742188 38.449219 C 103.933594 38.6875 104.027344 38.964844 104.027344 39.285156 C 104.027344 39.644531 103.914062 39.957031 103.6875 40.226562 C 103.460938 40.492188 103.167969 40.660156 102.808594 40.726562 C 102.410156 40.792969 101.964844 40.738281 101.765625 40.625 C 101.507812 40.5 101.269531 40.296875 101.058594 40.019531 C 100.847656 39.742188 100.703125 39.410156 100.625 39.023438 L 98.746094 39.226562 C 98.890625 40.171875 99.222656 40.90625 99.738281 41.425781 C 100.257812 41.941406 100.933594 42.253906 101.765625 42.355469 L 101.765625 43.296875 L 102.808594 43.296875 L 102.808594 42.316406 C 103.746094 42.183594 104.476562 41.820312 105.003906 41.222656 C 105.527344 40.628906 105.792969 39.894531 105.792969 39.023438 C 105.792969 38.246094 105.582031 37.609375 105.164062 37.113281 C 104.75 36.617188 103.960938 36.210938 102.808594 35.898438 " fill-opacity="1" fill-rule="nonzero"/><path fill="#ffffff" d="M 99.039062 29.917969 C 97.222656 30.25 96.953125 30.519531 96.617188 32.335938 C 96.285156 30.519531 96.011719 30.25 94.199219 29.917969 C 96.011719 29.582031 96.285156 29.3125 96.617188 27.496094 C 96.953125 29.3125 97.222656 29.582031 99.039062 29.917969 " fill-opacity="1" fill-rule="nonzero"/><g fill="#000000" fill-opacity="1"><g transform="translate(11.27845, 44.805313)"><g><path d="M 5.015625 0.15625 C 4.097656 0.15625 3.304688 -0.0390625 2.640625 -0.4375 C 1.984375 -0.832031 1.476562 -1.382812 1.125 -2.09375 C 0.769531 -2.800781 0.59375 -3.617188 0.59375 -4.546875 C 0.59375 -5.484375 0.769531 -6.304688 1.125 -7.015625 C 1.476562 -7.734375 1.984375 -8.289062 2.640625 -8.6875 C 3.304688 -9.09375 4.097656 -9.296875 5.015625 -9.296875 C 6.117188 -9.296875 7.019531 -9.019531 7.71875 -8.46875 C 8.414062 -7.925781 8.851562 -7.164062 9.03125 -6.1875 L 7.1875 -6.1875 C 7.070312 -6.675781 6.828125 -7.0625 6.453125 -7.34375 C 6.085938 -7.632812 5.601562 -7.78125 5 -7.78125 C 4.15625 -7.78125 3.492188 -7.488281 3.015625 -6.90625 C 2.535156 -6.332031 2.296875 -5.546875 2.296875 -4.546875 C 2.296875 -3.546875 2.535156 -2.757812 3.015625 -2.1875 C 3.492188 -1.625 4.15625 -1.34375 5 -1.34375 C 5.601562 -1.34375 6.085938 -1.472656 6.453125 -1.734375 C 6.828125 -2.003906 7.070312 -2.375 7.1875 -2.84375 L 9.03125 -2.84375 C 8.851562 -1.90625 8.414062 -1.171875 7.71875 -0.640625 C 7.019531 -0.109375 6.117188 0.15625 5.015625 0.15625 Z M 5.015625 0.15625 "/></g></g></g><g fill="#000000" fill-opacity="1"><g transform="translate(20.898904, 44.805313)"><g><path d="M 3.953125 0.15625 C 3.328125 0.15625 2.765625 0.015625 2.265625 -0.265625 C 1.765625 -0.554688 1.367188 -0.957031 1.078125 -1.46875 C 0.785156 -1.976562 0.640625 -2.566406 0.640625 -3.234375 C 0.640625 -3.898438 0.785156 -4.488281 1.078125 -5 C 1.378906 -5.507812 1.78125 -5.90625 2.28125 -6.1875 C 2.78125 -6.476562 3.34375 -6.625 3.96875 -6.625 C 4.582031 -6.625 5.140625 -6.476562 5.640625 -6.1875 C 6.140625 -5.90625 6.535156 -5.507812 6.828125 -5 C 7.117188 -4.488281 7.265625 -3.898438 7.265625 -3.234375 C 7.265625 -2.566406 7.117188 -1.976562 6.828125 -1.46875 C 6.535156 -0.957031 6.132812 -0.554688 5.625 -0.265625 C 5.125 0.015625 4.566406 0.15625 3.953125 0.15625 Z M 3.953125 -1.296875 C 4.390625 -1.296875 4.769531 -1.457031 5.09375 -1.78125 C 5.414062 -2.101562 5.578125 -2.585938 5.578125 -3.234375 C 5.578125 -3.878906 5.414062 -4.363281 5.09375 -4.6875 C 4.769531 -5.007812 4.394531 -5.171875 3.96875 -5.171875 C 3.519531 -5.171875 3.132812 -5.007812 2.8125 -4.6875 C 2.5 -4.363281 2.34375 -3.878906 2.34375 -3.234375 C 2.34375 -2.585938 2.5 -2.101562 2.8125 -1.78125 C 3.132812 -1.457031 3.515625 -1.296875 3.953125 -1.296875 Z M 3.953125 -1.296875 "/></g></g></g><g fill="#000000" fill-opacity="1"><g transform="translate(28.809348, 44.805313)"><g><path d="M 1.75 -7.46875 C 1.445312 -7.46875 1.195312 -7.5625 1 -7.75 C 0.800781 -7.9375 0.703125 -8.164062 0.703125 -8.4375 C 0.703125 -8.71875 0.800781 -8.945312 1 -9.125 C 1.195312 -9.300781 1.445312 -9.390625 1.75 -9.390625 C 2.050781 -9.390625 2.300781 -9.300781 2.5 -9.125 C 2.695312 -8.945312 2.796875 -8.71875 2.796875 -8.4375 C 2.796875 -8.164062 2.695312 -7.9375 2.5 -7.75 C 2.300781 -7.5625 2.050781 -7.46875 1.75 -7.46875 Z M 0.90625 0 L 0.90625 -6.46875 L 2.578125 -6.46875 L 2.578125 0 Z M 0.90625 0 "/></g></g></g><g fill="#000000" fill-opacity="1"><g transform="translate(32.294648, 44.805313)"><g><path d="M 0.84375 0 L 0.84375 -6.46875 L 2.328125 -6.46875 L 2.453125 -5.375 C 2.648438 -5.757812 2.9375 -6.0625 3.3125 -6.28125 C 3.695312 -6.507812 4.144531 -6.625 4.65625 -6.625 C 5.457031 -6.625 6.078125 -6.367188 6.515625 -5.859375 C 6.960938 -5.359375 7.1875 -4.625 7.1875 -3.65625 L 7.1875 0 L 5.515625 0 L 5.515625 -3.5 C 5.515625 -4.050781 5.398438 -4.472656 5.171875 -4.765625 C 4.953125 -5.066406 4.601562 -5.21875 4.125 -5.21875 C 3.65625 -5.21875 3.269531 -5.050781 2.96875 -4.71875 C 2.664062 -4.394531 2.515625 -3.9375 2.515625 -3.34375 L 2.515625 0 Z M 0.84375 0 "/></g></g></g><g fill="#000000" fill-opacity="1"><g transform="translate(40.231201, 44.805313)"><g><path d="M 0.890625 0 L 0.890625 -9.140625 L 4.234375 -9.140625 C 4.972656 -9.140625 5.578125 -9.015625 6.046875 -8.765625 C 6.523438 -8.515625 6.878906 -8.175781 7.109375 -7.75 C 7.347656 -7.332031 7.46875 -6.867188 7.46875 -6.359375 C 7.46875 -5.796875 7.320312 -5.285156 7.03125 -4.828125 C 6.738281 -4.367188 6.28125 -4.035156 5.65625 -3.828125 L 7.546875 0 L 5.640625 0 L 3.9375 -3.59375 L 2.5625 -3.59375 L 2.5625 0 Z M 2.5625 -4.828125 L 4.140625 -4.828125 C 4.691406 -4.828125 5.097656 -4.960938 5.359375 -5.234375 C 5.617188 -5.503906 5.75 -5.859375 5.75 -6.296875 C 5.75 -6.734375 5.617188 -7.082031 5.359375 -7.34375 C 5.109375 -7.601562 4.695312 -7.734375 4.125 -7.734375 L 2.5625 -7.734375 Z M 2.5625 -4.828125 "/></g></g></g><g fill="#000000" fill-opacity="1"><g transform="translate(48.363566, 44.805313)"><g><path d="M 4.40625 0.15625 C 3.738281 0.15625 3.132812 0.0234375 2.59375 -0.234375 C 2.050781 -0.503906 1.617188 -0.90625 1.296875 -1.4375 C 0.984375 -1.976562 0.828125 -2.664062 0.828125 -3.5 L 0.828125 -9.140625 L 2.5 -9.140625 L 2.5 -3.484375 C 2.5 -2.765625 2.671875 -2.234375 3.015625 -1.890625 C 3.359375 -1.546875 3.835938 -1.375 4.453125 -1.375 C 5.046875 -1.375 5.515625 -1.546875 5.859375 -1.890625 C 6.210938 -2.234375 6.390625 -2.765625 6.390625 -3.484375 L 6.390625 -9.140625 L 8.0625 -9.140625 L 8.0625 -3.5 C 8.0625 -2.664062 7.894531 -1.976562 7.5625 -1.4375 C 7.238281 -0.90625 6.800781 -0.503906 6.25 -0.234375 C 5.695312 0.0234375 5.082031 0.15625 4.40625 0.15625 Z M 4.40625 0.15625 "/></g></g></g><g fill="#000000" fill-opacity="1"><g transform="translate(57.25303, 44.805313)"><g><path d="M 0.890625 0 L 0.890625 -9.140625 L 4.265625 -9.140625 C 4.992188 -9.140625 5.597656 -9.015625 6.078125 -8.765625 C 6.554688 -8.523438 6.910156 -8.191406 7.140625 -7.765625 C 7.378906 -7.335938 7.5 -6.859375 7.5 -6.328125 C 7.5 -5.828125 7.382812 -5.363281 7.15625 -4.9375 C 6.9375 -4.519531 6.585938 -4.179688 6.109375 -3.921875 C 5.628906 -3.660156 5.015625 -3.53125 4.265625 -3.53125 L 2.5625 -3.53125 L 2.5625 0 Z M 2.5625 -4.890625 L 4.15625 -4.890625 C 4.738281 -4.890625 5.160156 -5.015625 5.421875 -5.265625 C 5.679688 -5.523438 5.8125 -5.878906 5.8125 -6.328125 C 5.8125 -6.773438 5.679688 -7.128906 5.421875 -7.390625 C 5.160156 -7.648438 4.738281 -7.78125 4.15625 -7.78125 L 2.5625 -7.78125 Z M 2.5625 -4.890625 "/></g></g></g><g fill="#000000" fill-opacity="1"><g transform="translate(65.176537, 44.805313)"><g><path d="M 0.890625 0 L 0.890625 -9.140625 L 2.5625 -9.140625 L 2.5625 0 Z M 0.890625 0 "/></g></g></g><g fill="#000000" fill-opacity="1"><g transform="translate(68.622681, 44.805313)"><g><path d="M 0.296875 0 L 3.640625 -9.140625 L 5.515625 -9.140625 L 8.859375 0 L 7.078125 0 L 6.359375 -2.109375 L 2.796875 -2.109375 L 2.046875 0 Z M 3.25 -3.421875 L 5.890625 -3.421875 L 4.5625 -7.21875 Z M 3.25 -3.421875 "/></g></g></g><g fill="#000000" fill-opacity="1"><g transform="translate(77.77322, 44.805313)"><g><path d="M 0.890625 0 L 0.890625 -9.140625 L 2.5625 -9.140625 L 2.5625 -5.34375 L 6.65625 -5.34375 L 6.65625 -9.140625 L 8.328125 -9.140625 L 8.328125 0 L 6.65625 0 L 6.65625 -3.984375 L 2.5625 -3.984375 L 2.5625 0 Z M 0.890625 0 "/></g></g></g></svg>