<svg xmlns="http://www.w3.org/2000/svg" width="416" height="403" fill="none"><g clip-path="url(#a)"><rect width="416" height="403" fill="#fff" rx="16"/><rect width="415" height="402" x=".5" y=".5" fill="#fff" rx="15.5"/><path stroke="#F2F2F2" d="M0 190h416"/><path fill="#000" d="M65.278 84.364h2.131l3.705 9.045h.136l3.704-9.045h2.131V96h-1.67v-8.42h-.108l-3.432 8.403h-1.386l-3.432-8.41h-.108V96h-1.67V84.364zM80.621 96h-1.864l4.188-11.636h2.028L89.161 96h-1.864l-3.29-9.523h-.09L80.62 96zm.312-4.557h6.046v1.478h-6.046v-1.478zm7.959-5.568v-1.511h9.006v1.511h-3.631V96h-1.75V85.875h-3.625zm12.751-1.511V96h-1.755V84.364h1.755zm12.222 3.784h-1.773a2.717 2.717 0 0 0-.38-1 2.803 2.803 0 0 0-.682-.733 2.924 2.924 0 0 0-.904-.455 3.527 3.527 0 0 0-1.051-.153c-.67 0-1.271.168-1.801.505-.526.338-.943.832-1.25 1.484-.303.651-.454 1.446-.454 2.386 0 .947.151 1.746.454 2.397.307.652.726 1.145 1.256 1.478.53.333 1.127.5 1.79.5.367 0 .716-.05 1.045-.148.333-.102.635-.252.903-.449a2.74 2.74 0 0 0 1.074-1.71l1.773.006a4.747 4.747 0 0 1-.551 1.58 4.36 4.36 0 0 1-1.04 1.238c-.42.345-.901.612-1.443.801a5.34 5.34 0 0 1-1.773.284c-1.007 0-1.905-.239-2.693-.716-.788-.48-1.409-1.168-1.864-2.062-.45-.894-.676-1.96-.676-3.2 0-1.242.228-2.308.682-3.198.455-.894 1.076-1.58 1.864-2.057.788-.48 1.683-.722 2.687-.722.618 0 1.193.09 1.728.268.537.174 1.02.431 1.448.772.428.337.783.75 1.063 1.239.28.485.47 1.04.568 1.665zM30.672 34.493a1.453 1.453 0 0 0-.656-1.094c-.385-.262-.869-.393-1.452-.393-.418 0-.779.067-1.084.2a1.645 1.645 0 0 0-.71.536 1.268 1.268 0 0 0-.25.77c0 .243.057.452.17.627.116.176.266.323.452.443.189.116.391.213.607.293.215.076.422.14.621.189l.994.258c.325.08.658.188 1 .324.341.136.657.315.95.536.29.223.526.498.705.826.183.328.274.72.274 1.178 0 .577-.15 1.089-.448 1.536-.295.448-.724.8-1.287 1.06-.56.258-1.238.387-2.034.387-.762 0-1.422-.12-1.979-.363-.556-.242-.992-.585-1.307-1.029-.315-.447-.489-.978-.522-1.59h1.541c.03.367.15.674.358.919.212.242.482.422.81.542.332.116.695.174 1.09.174.433 0 .82-.068 1.158-.204.341-.14.61-.332.805-.577.195-.248.293-.538.293-.87 0-.301-.086-.548-.258-.74a1.91 1.91 0 0 0-.691-.478 6.755 6.755 0 0 0-.98-.333l-1.203-.328c-.815-.222-1.461-.549-1.939-.98-.474-.43-.71-1-.71-1.71 0-.586.158-1.098.477-1.536a3.15 3.15 0 0 1 1.292-1.02c.544-.244 1.157-.367 1.84-.367.69 0 1.297.121 1.824.363.53.242.948.575 1.253 1 .305.42.464.904.477 1.45h-1.481zm6.628 7.661c-.752 0-1.4-.16-1.944-.482a3.271 3.271 0 0 1-1.253-1.367c-.291-.59-.437-1.281-.437-2.074 0-.782.146-1.471.438-2.068a3.398 3.398 0 0 1 1.233-1.397c.53-.334 1.15-.502 1.859-.502.43 0 .848.072 1.253.214.404.142.767.366 1.089.671.321.305.575.701.76 1.188.186.484.279 1.073.279 1.765v.527h-6.07v-1.113h4.613c0-.392-.08-.738-.239-1.04a1.803 1.803 0 0 0-.671-.72 1.875 1.875 0 0 0-1.004-.264 1.94 1.94 0 0 0-1.094.308 2.07 2.07 0 0 0-.716.796 2.296 2.296 0 0 0-.248 1.059v.87c0 .51.089.944.268 1.302.182.358.436.632.76.82.325.186.705.28 1.14.28.28 0 .538-.04.77-.12a1.598 1.598 0 0 0 .99-.97l1.406.254a2.548 2.548 0 0 1-.606 1.089 2.94 2.94 0 0 1-1.09.72c-.433.17-.929.254-1.486.254zm6.412-4.688V42h-1.486v-7.636h1.427v1.242h.094a2.18 2.18 0 0 1 .825-.974c.378-.245.854-.368 1.427-.368.52 0 .976.11 1.367.328.392.216.695.537.91.965.216.427.323.956.323 1.586V42h-1.486v-4.678c0-.554-.144-.986-.433-1.298-.288-.315-.684-.472-1.188-.472-.344 0-.651.074-.92.224a1.596 1.596 0 0 0-.63.656c-.153.285-.23.63-.23 1.034zm9.74 4.683a2.96 2.96 0 0 1-1.65-.472c-.481-.318-.86-.77-1.134-1.357-.272-.59-.408-1.298-.408-2.123 0-.826.138-1.532.413-2.118.278-.587.66-1.036 1.143-1.348a2.974 2.974 0 0 1 1.646-.467c.474 0 .855.08 1.143.239.292.156.517.338.676.547.163.209.289.393.378.552h.09v-3.784h1.486V42h-1.452v-1.188h-.124a4.02 4.02 0 0 1-.388.557 2.155 2.155 0 0 1-.686.547c-.291.155-.67.233-1.133.233zm.328-1.268c.427 0 .789-.112 1.084-.338.298-.228.523-.545.676-.95.156-.404.233-.874.233-1.411 0-.53-.076-.995-.228-1.392-.153-.398-.376-.708-.671-.93-.295-.222-.66-.333-1.094-.333-.448 0-.82.116-1.119.348a2.126 2.126 0 0 0-.676.95c-.15.4-.224.853-.224 1.357 0 .51.077.97.23 1.377.151.408.377.73.675.97.302.235.673.352 1.114.352zM330.399 98v-1.59l4.922-5.1c.526-.554.959-1.04 1.3-1.456.345-.422.603-.822.774-1.2.17-.38.256-.782.256-1.208 0-.483-.114-.9-.341-1.25a2.234 2.234 0 0 0-.931-.817 2.955 2.955 0 0 0-1.328-.29c-.521 0-.975.106-1.363.319a2.183 2.183 0 0 0-.895.902c-.209.388-.313.843-.313 1.363h-2.095c0-.885.204-1.66.611-2.322a4.148 4.148 0 0 1 1.676-1.541c.71-.37 1.517-.554 2.422-.554.914 0 1.719.182 2.415.547.7.36 1.247.852 1.64 1.477.393.62.59 1.32.59 2.102 0 .54-.102 1.068-.306 1.584-.199.516-.547 1.091-1.044 1.726-.497.63-1.188 1.394-2.074 2.294l-2.89 3.025v.107h6.548V98h-9.574zm17.181.199c-1.018 0-1.918-.175-2.699-.526-.777-.35-1.385-.833-1.826-1.449a3.486 3.486 0 0 1-.653-2.102 3.71 3.71 0 0 1 1.435-2.997c.445-.35.942-.573 1.491-.668v-.085a2.938 2.938 0 0 1-1.74-1.165c-.436-.6-.651-1.292-.646-2.073a3.406 3.406 0 0 1 .589-1.99c.403-.586.954-1.048 1.655-1.384.701-.336 1.499-.504 2.394-.504.885 0 1.676.17 2.372.511.7.336 1.252.798 1.655 1.385a3.44 3.44 0 0 1 .61 1.981 3.452 3.452 0 0 1-.667 2.074 2.963 2.963 0 0 1-1.719 1.165v.085a3.179 3.179 0 0 1 1.47.668c.44.346.791.779 1.051 1.3.265.516.4 1.082.405 1.697a3.56 3.56 0 0 1-.668 2.102c-.44.616-1.051 1.099-1.832 1.45-.776.35-1.669.525-2.677.525zm0-1.797c.601 0 1.122-.1 1.562-.298.44-.204.781-.486 1.023-.846.241-.364.364-.79.369-1.278a2.392 2.392 0 0 0-.398-1.342 2.646 2.646 0 0 0-1.044-.916c-.44-.223-.944-.334-1.512-.334-.573 0-1.082.111-1.527.334a2.643 2.643 0 0 0-1.052.916 2.346 2.346 0 0 0-.376 1.342c-.005.488.111.914.348 1.278.241.36.585.642 1.03.846.445.199.97.298 1.577.298zm0-6.769a2.75 2.75 0 0 0 1.285-.29c.374-.195.668-.465.881-.81.218-.346.329-.75.334-1.215a2.253 2.253 0 0 0-.327-1.193c-.208-.34-.5-.604-.874-.788-.374-.19-.807-.284-1.299-.284-.502 0-.943.094-1.321.284a2.07 2.07 0 0 0-.874.788c-.208.34-.31.739-.305 1.193-.005.464.099.869.312 1.215.213.345.507.615.881.81.379.194.814.29 1.307.29zm8.719 8.502c-.388 0-.722-.137-1.001-.412a1.376 1.376 0 0 1-.419-1.008c0-.389.14-.72.419-.995.279-.28.613-.419 1.001-.419.389 0 .722.14 1.002.42.279.274.419.605.419.993 0 .26-.066.5-.199.718a1.47 1.47 0 0 1-.511.511c-.213.128-.45.192-.711.192zm8.773.106c-1.122-.004-2.081-.3-2.876-.887-.795-.587-1.404-1.442-1.825-2.564-.422-1.122-.632-2.474-.632-4.056 0-1.576.21-2.923.632-4.04.426-1.118 1.037-1.97 1.832-2.558.8-.587 1.757-.88 2.869-.88 1.113 0 2.067.296 2.863.888.795.587 1.404 1.439 1.825 2.556.426 1.113.639 2.458.639 4.034 0 1.587-.211 2.94-.632 4.063-.421 1.117-1.03 1.972-1.825 2.564-.796.587-1.752.88-2.87.88zm0-1.896c.985 0 1.755-.48 2.309-1.442.558-.96.838-2.35.838-4.169 0-1.207-.128-2.227-.384-3.06-.251-.839-.613-1.473-1.086-1.904a2.38 2.38 0 0 0-1.677-.653c-.98 0-1.749.482-2.308 1.448-.559.966-.84 2.356-.845 4.17 0 1.212.126 2.237.376 3.075.256.833.618 1.465 1.087 1.896.469.426 1.032.64 1.69.64zM377.72 98.2c-.89 0-1.691-.17-2.401-.511a4.361 4.361 0 0 1-1.69-1.421 3.758 3.758 0 0 1-.675-2.06h2.131c.052.625.329 1.14.831 1.542.502.402 1.103.603 1.804.603.559 0 1.053-.128 1.484-.383.436-.26.777-.618 1.023-1.073.251-.454.376-.973.376-1.555 0-.592-.128-1.12-.383-1.584a2.838 2.838 0 0 0-1.058-1.094c-.445-.265-.957-.4-1.535-.404-.44 0-.883.075-1.328.227-.445.151-.805.35-1.079.596l-2.01-.298.817-7.33h7.997v1.883h-6.172l-.462 4.07h.085c.285-.275.661-.505 1.13-.69.473-.184.98-.277 1.52-.277.885 0 1.673.211 2.365.632a4.487 4.487 0 0 1 1.64 1.726c.403.725.602 1.558.597 2.5.005.942-.208 1.783-.639 2.522a4.627 4.627 0 0 1-1.776 1.747c-.753.421-1.617.632-2.592.632z"/><path fill="#A1A1A1" d="M352.121 134.273v-12.728h.816v12.728h-.816zm2.551-8.78a1.454 1.454 0 0 0-.656-1.094c-.385-.262-.869-.393-1.452-.393-.418 0-.779.067-1.084.199-.305.13-.542.308-.711.537a1.266 1.266 0 0 0-.248.771c0 .242.056.451.169.626.116.176.266.323.452.443.189.116.391.213.607.293.215.076.422.139.621.189l.994.258c.325.08.658.188 1 .324.341.135.658.314.949.537.292.222.527.497.706.825.182.328.274.721.274 1.178 0 .577-.15 1.089-.448 1.536-.295.448-.724.801-1.287 1.059-.561.259-1.238.388-2.034.388-.762 0-1.422-.121-1.979-.363-.556-.242-.992-.585-1.307-1.029-.315-.447-.489-.978-.522-1.591h1.541c.03.368.149.675.358.92.212.242.482.422.81.542.332.116.695.174 1.089.174.434 0 .821-.068 1.159-.204.341-.139.609-.332.805-.577.196-.248.293-.538.293-.87 0-.301-.086-.548-.258-.741a1.918 1.918 0 0 0-.691-.477 6.752 6.752 0 0 0-.98-.333l-1.203-.328c-.815-.222-1.461-.549-1.939-.98-.474-.43-.711-1-.711-1.71 0-.586.159-1.098.478-1.536a3.14 3.14 0 0 1 1.292-1.019c.544-.245 1.157-.368 1.84-.368.689 0 1.297.121 1.824.363.531.242.948.575 1.253.999.305.421.464.905.477 1.452h-1.481zm6.678 7.646c-.623 0-1.183-.119-1.68-.358a3.054 3.054 0 0 1-1.184-.994 2.627 2.627 0 0 1-.472-1.442h1.492c.036.438.23.797.581 1.079.352.282.772.423 1.263.423.391 0 .737-.09 1.039-.269.305-.182.544-.432.716-.751a2.21 2.21 0 0 0 .263-1.088c0-.415-.089-.784-.268-1.109a1.984 1.984 0 0 0-.741-.766 2.092 2.092 0 0 0-1.074-.283c-.308 0-.618.053-.929.159a2.145 2.145 0 0 0-.756.418l-1.407-.209.572-5.131h5.598v1.318h-4.321l-.323 2.848h.06c.199-.192.462-.353.79-.482a2.913 2.913 0 0 1 1.064-.194c.62 0 1.172.148 1.656.443.487.295.87.697 1.148 1.208.282.507.421 1.09.418 1.75.003.659-.146 1.248-.448 1.765a3.243 3.243 0 0 1-1.242 1.223c-.527.295-1.132.442-1.815.442zm8.866.03c-.786-.003-1.457-.21-2.014-.621-.557-.411-.983-1.01-1.278-1.795-.295-.786-.442-1.732-.442-2.839 0-1.104.147-2.047.442-2.829.299-.782.726-1.379 1.283-1.79.56-.411 1.23-.616 2.009-.616.778 0 1.446.207 2.003.621.557.411.983 1.008 1.278 1.79.298.779.447 1.72.447 2.824 0 1.11-.147 2.058-.442 2.844-.295.782-.721 1.38-1.278 1.795-.557.411-1.226.616-2.008.616zm0-1.327c.689 0 1.228-.337 1.615-1.01.391-.672.587-1.645.587-2.918 0-.845-.09-1.559-.268-2.143-.176-.586-.43-1.03-.761-1.332a1.663 1.663 0 0 0-1.173-.457c-.687 0-1.225.338-1.616 1.014-.391.676-.589 1.649-.592 2.918 0 .849.088 1.566.264 2.153.179.583.432 1.026.76 1.327a1.7 1.7 0 0 0 1.184.448zm9.037 1.327c-.786-.003-1.457-.21-2.014-.621-.557-.411-.983-1.01-1.278-1.795-.295-.786-.442-1.732-.442-2.839 0-1.104.147-2.047.442-2.829.299-.782.726-1.379 1.283-1.79.56-.411 1.23-.616 2.009-.616.779 0 1.446.207 2.003.621.557.411.983 1.008 1.278 1.79.298.779.447 1.72.447 2.824 0 1.11-.147 2.058-.442 2.844-.295.782-.721 1.38-1.278 1.795-.557.411-1.226.616-2.008.616zm0-1.327c.689 0 1.228-.337 1.615-1.01.392-.672.587-1.645.587-2.918 0-.845-.089-1.559-.268-2.143-.176-.586-.43-1.03-.761-1.332a1.663 1.663 0 0 0-1.173-.457c-.686 0-1.225.338-1.616 1.014-.391.676-.588 1.649-.592 2.918 0 .849.088 1.566.264 2.153.179.583.432 1.026.76 1.327.329.298.723.448 1.184.448z"/><rect width="59" height="59" x="178.5" y="160.5" fill="#fff" rx="29.5"/><path fill="#4F75FF" d="M207.95 194.05 203 199l-4.949-4.95 1.414-1.414 2.536 2.536L202 182h2l.001 13.172 2.535-2.536 1.414 1.414zm10-8.1-1.414 1.414-2.535-2.536L214 198h-2l.001-13.172-2.536 2.536-1.414-1.414L213 181l4.95 4.95z"/><rect width="59" height="59" x="178.5" y="160.5" stroke="#F2F2F2" rx="29.5"/><rect width="32" height="32" x="24" y="75" fill="#8247E5" rx="16"/><g clip-path="url(#b)"><path fill="#fff" d="M45.344 87.303c-.389-.222-.888-.222-1.332 0l-3.11 1.832-2.109 1.166-3.053 1.832c-.39.222-.889.222-1.333 0L32.02 90.69a1.353 1.353 0 0 1-.666-1.166v-2.776c0-.444.222-.888.666-1.166l2.387-1.388c.389-.222.888-.222 1.333 0l2.387 1.444c.388.222.666.666.666 1.165v1.832l2.11-1.22v-1.889a1.37 1.37 0 0 0-.666-1.165l-4.442-2.61c-.389-.222-.888-.222-1.332 0l-4.553 2.665a1.221 1.221 0 0 0-.666 1.11v5.22c0 .443.222.888.666 1.165l4.497 2.61c.389.222.888.222 1.333 0l3.053-1.777 2.11-1.222 3.053-1.776c.389-.222.888-.222 1.333 0l2.387 1.388c.389.222.666.666.666 1.166v2.776c0 .444-.222.888-.666 1.166l-2.332 1.387c-.389.222-.888.222-1.332 0l-2.388-1.388a1.353 1.353 0 0 1-.666-1.165v-1.777l-2.11 1.221v1.833c0 .444.223.888.667 1.165l4.497 2.61c.388.222.888.222 1.332 0l4.497-2.61c.389-.222.666-.666.666-1.165v-5.275a1.37 1.37 0 0 0-.666-1.166l-4.497-2.609z"/></g><rect width="61" height="24" x="247.5" y="24.5" fill="#fff" rx="12"/><path fill="#000" d="M265.672 34.493a1.454 1.454 0 0 0-.656-1.094c-.385-.262-.869-.393-1.452-.393-.418 0-.779.067-1.084.2a1.654 1.654 0 0 0-.711.536 1.265 1.265 0 0 0-.248.77c0 .243.056.452.169.627.116.176.266.323.452.443.189.116.391.213.607.293.215.076.422.14.621.189l.994.258c.325.08.658.188 1 .324a4 4 0 0 1 .949.536c.292.223.527.498.706.826.182.328.274.72.274 1.178 0 .577-.15 1.089-.448 1.536-.295.448-.724.8-1.287 1.06-.561.258-1.238.387-2.034.387-.762 0-1.422-.12-1.979-.363-.556-.242-.992-.585-1.307-1.029-.315-.447-.489-.978-.522-1.59h1.541c.03.367.149.674.358.919.212.242.482.422.81.542.332.116.695.174 1.089.174a3.09 3.09 0 0 0 1.159-.204c.341-.14.609-.332.805-.577.196-.248.293-.538.293-.87 0-.301-.086-.548-.258-.74a1.916 1.916 0 0 0-.691-.478 6.776 6.776 0 0 0-.98-.333l-1.203-.328c-.815-.222-1.461-.549-1.939-.98-.474-.43-.711-1-.711-1.71 0-.586.159-1.098.478-1.536a3.135 3.135 0 0 1 1.292-1.02c.544-.244 1.157-.367 1.84-.367.689 0 1.297.121 1.824.363.531.242.948.575 1.253 1 .305.42.464.904.477 1.45h-1.481zM270.665 42l-2.248-7.636h1.537l1.496 5.608h.075l1.501-5.608h1.536l1.492 5.583h.074l1.487-5.583h1.536L276.909 42h-1.516l-1.552-5.514h-.114L272.176 42h-1.511zm12.119.169a3.13 3.13 0 0 1-1.312-.268 2.208 2.208 0 0 1-.93-.79c-.225-.346-.338-.768-.338-1.269 0-.43.083-.785.248-1.064.166-.278.39-.498.672-.66a3.49 3.49 0 0 1 .944-.369 9.396 9.396 0 0 1 1.064-.189l1.114-.129c.285-.036.492-.094.621-.174.129-.08.194-.209.194-.388v-.035c0-.434-.123-.77-.368-1.009-.242-.238-.603-.358-1.084-.358-.5 0-.895.111-1.183.333-.285.22-.482.463-.591.731l-1.397-.318c.165-.464.407-.839.725-1.123a2.945 2.945 0 0 1 1.109-.627 4.33 4.33 0 0 1 1.317-.199c.305 0 .629.037.97.11.345.07.666.198.964.387.302.19.549.46.741.81.192.349.289.801.289 1.358V42h-1.452v-1.044h-.06c-.096.192-.24.381-.432.567-.193.185-.439.34-.741.462-.302.123-.663.184-1.084.184zm.323-1.193c.411 0 .763-.081 1.054-.244.295-.162.519-.374.671-.636a1.65 1.65 0 0 0 .234-.85v-.985c-.053.053-.156.103-.308.15-.149.043-.32.08-.512.114-.192.03-.38.058-.562.084l-.457.06a3.687 3.687 0 0 0-.791.184c-.235.086-.424.21-.567.373-.139.159-.208.371-.208.636 0 .368.135.646.407.835.272.186.618.279 1.039.279zm5.425 3.888v-10.5h1.452v1.238h.124a4.28 4.28 0 0 1 .373-.552 2.12 2.12 0 0 1 .676-.547c.289-.16.67-.239 1.144-.239a2.99 2.99 0 0 1 1.651.467c.483.312.863.761 1.138 1.348.278.587.418 1.292.418 2.118 0 .825-.138 1.533-.413 2.123-.275.586-.653 1.039-1.134 1.357a2.933 2.933 0 0 1-1.645.472c-.464 0-.844-.078-1.139-.233a2.165 2.165 0 0 1-.686-.547 4.261 4.261 0 0 1-.383-.557h-.089v4.052h-1.487zm1.457-6.682c0 .537.078 1.007.234 1.412.156.404.381.72.676.95.295.225.656.337 1.084.337.444 0 .815-.117 1.113-.353a2.19 2.19 0 0 0 .677-.97c.155-.407.233-.866.233-1.376 0-.504-.076-.956-.228-1.357a2.082 2.082 0 0 0-.677-.95c-.298-.232-.671-.348-1.118-.348-.431 0-.796.111-1.094.333-.295.222-.519.532-.671.93-.153.398-.229.861-.229 1.392z"/><rect width="61" height="24" x="247.5" y="24.5" stroke="#EAEAEA" rx="12"/><rect width="392" height="42" x="12" y="349" fill="#4F75FF" rx="10"/><path fill="#fff" d="M195.672 367.493a1.454 1.454 0 0 0-.656-1.094c-.385-.262-.869-.393-1.452-.393-.418 0-.779.067-1.084.199-.305.13-.542.308-.711.537a1.266 1.266 0 0 0-.248.771c0 .242.056.451.169.626.116.176.266.323.452.443.189.116.391.213.607.293.215.076.422.139.621.189l.994.258c.325.08.658.188 1 .324.341.135.658.314.949.537.292.222.527.497.706.825.182.328.274.721.274 1.178 0 .577-.15 1.089-.448 1.536-.295.448-.724.801-1.287 1.059-.561.259-1.238.388-2.034.388-.762 0-1.422-.121-1.979-.363-.556-.242-.992-.585-1.307-1.029-.315-.447-.489-.978-.522-1.591h1.541c.03.368.149.675.358.92.212.242.482.422.81.542.332.116.695.174 1.089.174.434 0 .821-.068 1.159-.204.341-.139.609-.332.805-.577.196-.248.293-.538.293-.87 0-.301-.086-.548-.258-.741a1.918 1.918 0 0 0-.691-.477 6.752 6.752 0 0 0-.98-.333l-1.203-.328c-.815-.222-1.461-.549-1.939-.98-.474-.43-.711-1-.711-1.71 0-.586.159-1.098.478-1.536a3.14 3.14 0 0 1 1.292-1.019c.544-.245 1.157-.368 1.84-.368.689 0 1.297.121 1.824.363.531.242.948.575 1.253.999.305.421.464.905.477 1.452h-1.481zm4.993 7.507-2.248-7.636h1.537l1.496 5.608h.075l1.501-5.608h1.536l1.492 5.583h.074l1.487-5.583h1.536L206.909 375h-1.516l-1.552-5.513h-.114L202.176 375h-1.511zm12.119.169c-.484 0-.921-.089-1.312-.268a2.212 2.212 0 0 1-.93-.791c-.225-.345-.338-.767-.338-1.268 0-.431.083-.785.248-1.064.166-.278.39-.498.672-.661a3.51 3.51 0 0 1 .944-.368 9.352 9.352 0 0 1 1.064-.189l1.114-.129c.285-.036.492-.094.621-.174.129-.079.194-.209.194-.388v-.034c0-.435-.123-.771-.368-1.01-.242-.238-.603-.358-1.084-.358-.5 0-.895.111-1.183.333-.285.219-.482.463-.591.731l-1.397-.318c.165-.464.407-.838.725-1.124a2.947 2.947 0 0 1 1.109-.626 4.317 4.317 0 0 1 1.317-.199c.305 0 .629.037.97.11.345.069.666.198.964.387.302.189.549.459.741.811.192.348.289.8.289 1.357V375h-1.452v-1.044h-.06c-.096.192-.24.381-.432.567a2.32 2.32 0 0 1-.741.462c-.302.123-.663.184-1.084.184zm.323-1.193c.411 0 .763-.081 1.054-.244.295-.162.519-.374.671-.636a1.65 1.65 0 0 0 .234-.85v-.985c-.053.053-.156.103-.308.15-.149.043-.32.081-.512.114-.192.03-.38.058-.562.084l-.457.06a3.67 3.67 0 0 0-.791.184c-.235.086-.424.21-.567.373-.139.159-.208.371-.208.636 0 .368.135.647.407.835.272.186.618.279 1.039.279zm5.425 3.888v-10.5h1.452v1.238h.124c.087-.16.211-.343.373-.552a2.12 2.12 0 0 1 .676-.547c.289-.159.67-.239 1.144-.239.616 0 1.167.156 1.651.468.483.311.863.76 1.138 1.347.278.586.418 1.292.418 2.118 0 .825-.138 1.533-.413 2.123-.275.586-.653 1.039-1.134 1.357a2.932 2.932 0 0 1-1.645.472c-.464 0-.844-.078-1.139-.234a2.164 2.164 0 0 1-.686-.546 4.302 4.302 0 0 1-.383-.557h-.089v4.052h-1.487zm1.457-6.682c0 .537.078 1.007.234 1.412.156.404.381.721.676.949.295.226.656.338 1.084.338.444 0 .815-.117 1.113-.353.299-.238.524-.561.677-.969.155-.408.233-.867.233-1.377 0-.504-.076-.956-.228-1.357a2.084 2.084 0 0 0-.677-.95c-.298-.232-.671-.348-1.118-.348-.431 0-.796.111-1.094.333-.295.222-.519.532-.671.93-.153.397-.229.862-.229 1.392z"/><rect width="82" height="25" x="314" y="24" fill="#fff" rx="12.5"/><path fill="#000" d="M327.119 42V31.818h1.536v8.86h4.613V42h-6.149zm7.783 0v-7.636h1.486V42h-1.486zm.75-8.815a.946.946 0 0 1-.666-.258.841.841 0 0 1-.273-.627.83.83 0 0 1 .273-.626.936.936 0 0 1 .666-.264.92.92 0 0 1 .662.264.825.825 0 0 1 .278.626.837.837 0 0 1-.278.627.93.93 0 0 1-.662.258zm7.892 11.679v-4.052h-.09a3.9 3.9 0 0 1-.388.557 2.143 2.143 0 0 1-.686.547c-.292.155-.669.233-1.133.233a2.96 2.96 0 0 1-1.651-.472c-.481-.318-.858-.77-1.133-1.357-.272-.59-.408-1.298-.408-2.123 0-.826.137-1.532.413-2.118.278-.587.659-1.036 1.143-1.348a2.974 2.974 0 0 1 1.646-.467c.474 0 .855.08 1.143.239.292.156.517.338.676.547.163.209.289.393.378.552h.124v-1.238h1.452v10.5h-1.486zm-1.969-3.983c.427 0 .789-.112 1.084-.338.298-.228.523-.545.676-.95.155-.404.233-.874.233-1.411 0-.53-.076-.995-.228-1.392-.153-.398-.377-.708-.671-.93-.295-.222-.66-.333-1.094-.333-.448 0-.821.116-1.119.348a2.125 2.125 0 0 0-.676.95 3.876 3.876 0 0 0-.224 1.357c0 .51.077.97.229 1.377.152.408.378.73.676.97.302.235.673.352 1.114.352zm10.291-2.048v-4.47h1.491V42h-1.461v-1.322h-.08a2.376 2.376 0 0 1-.845 1.019c-.384.268-.863.402-1.437.402-.49 0-.924-.107-1.302-.323a2.265 2.265 0 0 1-.885-.97c-.212-.427-.318-.955-.318-1.585v-4.857h1.486v4.678c0 .52.144.935.433 1.243.288.308.662.462 1.123.462.279 0 .555-.07.83-.209.279-.139.509-.35.692-.631.185-.282.276-.64.273-1.074zM355.355 42v-7.636h1.486V42h-1.486zm.75-8.815a.946.946 0 0 1-.666-.258.841.841 0 0 1-.273-.627.83.83 0 0 1 .273-.626.936.936 0 0 1 .666-.264.92.92 0 0 1 .662.264.825.825 0 0 1 .278.626.837.837 0 0 1-.278.627.93.93 0 0 1-.662.258zm5.595 8.964a2.96 2.96 0 0 1-1.651-.472c-.48-.318-.858-.77-1.133-1.357-.272-.59-.408-1.298-.408-2.123 0-.826.138-1.532.413-2.118.278-.587.659-1.036 1.143-1.348a2.976 2.976 0 0 1 1.646-.467c.474 0 .855.08 1.143.239.292.156.517.338.676.547.163.209.289.393.378.552h.09v-3.784h1.486V42h-1.452v-1.188h-.124a3.9 3.9 0 0 1-.388.557 2.143 2.143 0 0 1-.686.547c-.291.155-.669.233-1.133.233zm.328-1.268c.427 0 .789-.112 1.084-.338.298-.228.523-.545.676-.95.156-.404.233-.874.233-1.411 0-.53-.076-.995-.228-1.392-.153-.398-.376-.708-.671-.93-.295-.222-.66-.333-1.094-.333-.448 0-.82.116-1.119.348a2.133 2.133 0 0 0-.676.95 3.876 3.876 0 0 0-.224 1.357c0 .51.077.97.229 1.377.153.408.378.73.676.97.302.235.673.352 1.114.352zM367.605 42v-7.636h1.486V42h-1.486zm.75-8.815a.946.946 0 0 1-.666-.258.841.841 0 0 1-.273-.627.83.83 0 0 1 .273-.626.936.936 0 0 1 .666-.264.92.92 0 0 1 .662.264.825.825 0 0 1 .278.626.837.837 0 0 1-.278.627.93.93 0 0 1-.662.258zm6.301 1.179v1.193h-4.171v-1.193h4.171zm-3.053-1.83h1.487v7.224c0 .288.043.505.129.651a.67.67 0 0 0 .333.293c.139.05.29.075.452.075.12 0 .224-.008.314-.025.089-.016.159-.03.208-.04l.269 1.228a2.497 2.497 0 0 1-.368.1 2.916 2.916 0 0 1-.597.06 2.612 2.612 0 0 1-1.093-.21 1.88 1.88 0 0 1-.821-.675c-.208-.305-.313-.688-.313-1.149v-7.532zm5.637 12.33c-.222 0-.425-.019-.607-.055a1.93 1.93 0 0 1-.408-.11l.358-1.218a2.4 2.4 0 0 0 .726.095.87.87 0 0 0 .562-.239c.166-.149.312-.392.438-.73l.184-.508-2.794-7.735h1.59l1.934 5.926h.08l1.934-5.926h1.596l-3.147 8.655a3.466 3.466 0 0 1-.557 1.01 2.162 2.162 0 0 1-.805.626 2.64 2.64 0 0 1-1.084.209zM66.261 286h-1.863l4.187-11.636h2.029L74.8 286h-1.864l-3.29-9.523h-.09L66.26 286zm.313-4.557h6.045v1.477h-6.045v-1.477zM80.249 286h-3.767v-11.636h3.886c1.14 0 2.12.233 2.937.698a4.609 4.609 0 0 1 1.881 1.995c.44.863.66 1.899.66 3.108 0 1.212-.222 2.254-.666 3.125a4.668 4.668 0 0 1-1.909 2.011c-.833.466-1.84.699-3.022.699zm-2.012-1.534h1.915c.886 0 1.623-.167 2.21-.5a3.152 3.152 0 0 0 1.318-1.46c.292-.64.438-1.421.438-2.341 0-.913-.146-1.688-.438-2.324a3.095 3.095 0 0 0-1.29-1.449c-.571-.33-1.282-.494-2.13-.494h-2.023v8.568zM88.433 286H86.57l4.187-11.636h2.028L96.974 286H95.11l-3.29-9.523h-.09L88.433 286zm.313-4.557h6.045v1.477h-6.045v-1.477zm244.717 6.756c-.975 0-1.847-.168-2.614-.504-.762-.337-1.366-.803-1.811-1.4-.44-.601-.677-1.297-.71-2.088h2.23c.029.431.173.805.433 1.123a2.6 2.6 0 0 0 1.037.724c.427.17.9.256 1.421.256.573 0 1.079-.1 1.52-.299a2.48 2.48 0 0 0 1.044-.831c.251-.359.376-.774.376-1.242 0-.488-.125-.917-.376-1.286-.246-.374-.609-.668-1.087-.881-.473-.213-1.046-.319-1.719-.319h-1.228v-1.79h1.228c.54 0 1.014-.097 1.421-.291.412-.194.734-.464.966-.81.232-.35.348-.76.348-1.229 0-.449-.102-.84-.306-1.171a2.048 2.048 0 0 0-.852-.789c-.364-.189-.795-.284-1.293-.284-.473 0-.916.088-1.328.263-.407.17-.738.417-.994.738a1.901 1.901 0 0 0-.412 1.144h-2.123c.023-.786.255-1.477.696-2.074.445-.597 1.032-1.063 1.761-1.399.729-.336 1.539-.504 2.429-.504.933 0 1.738.182 2.415.547.681.359 1.207.84 1.576 1.441a3.62 3.62 0 0 1 .554 1.975c.005.814-.222 1.505-.681 2.074-.455.568-1.061.949-1.819 1.143v.114c.966.146 1.714.53 2.245 1.15.535.621.8 1.39.795 2.309.005.8-.218 1.517-.667 2.152-.446.634-1.054 1.134-1.826 1.498-.772.36-1.655.54-2.649.54zm12.891.042c-1.122-.004-2.081-.3-2.877-.887-.795-.587-1.404-1.442-1.825-2.564-.421-1.122-.632-2.474-.632-4.056 0-1.576.211-2.923.632-4.041.426-1.117 1.037-1.97 1.832-2.557.801-.587 1.757-.88 2.87-.88 1.112 0 2.066.296 2.862.887.795.588 1.404 1.44 1.825 2.557.426 1.113.639 2.458.639 4.034 0 1.587-.21 2.941-.632 4.063-.421 1.117-1.03 1.972-1.825 2.564-.795.587-1.752.88-2.869.88zm0-1.896c.985 0 1.754-.48 2.308-1.442.559-.961.838-2.35.838-4.169 0-1.207-.128-2.227-.384-3.061-.25-.838-.613-1.472-1.086-1.903a2.378 2.378 0 0 0-1.676-.654c-.98 0-1.75.483-2.309 1.449-.558.966-.84 2.356-.845 4.169 0 1.212.126 2.238.377 3.076.255.833.618 1.465 1.086 1.896.469.426 1.033.639 1.691.639zm8.746 1.79c-.388 0-.722-.137-1.001-.412a1.373 1.373 0 0 1-.419-1.009c0-.388.139-.719.419-.994a1.367 1.367 0 0 1 1.001-.419c.388 0 .722.14 1.002.419.279.275.419.606.419.994 0 .261-.067.5-.199.718a1.474 1.474 0 0 1-.512.511 1.35 1.35 0 0 1-.71.192zm8.898-14.879a5.612 5.612 0 0 1 1.917.355 4.54 4.54 0 0 1 1.705 1.136c.511.526.918 1.236 1.221 2.131.308.89.464 1.998.469 3.324 0 1.273-.128 2.407-.384 3.402-.255.989-.622 1.825-1.1 2.507-.474.682-1.049 1.2-1.726 1.555s-1.44.533-2.287.533c-.867 0-1.636-.171-2.308-.511a4.395 4.395 0 0 1-1.641-1.414 4.676 4.676 0 0 1-.788-2.088h2.166c.142.625.431 1.132.866 1.52.441.383 1.009.575 1.705.575 1.065 0 1.896-.464 2.493-1.392.596-.933.897-2.235.902-3.906h-.114a3.922 3.922 0 0 1-.923 1.051 4.146 4.146 0 0 1-1.229.682c-.454.161-.94.241-1.456.241-.838 0-1.6-.206-2.287-.618a4.547 4.547 0 0 1-1.64-1.697c-.408-.72-.611-1.541-.611-2.464 0-.919.208-1.752.625-2.5a4.657 4.657 0 0 1 1.761-1.776c.758-.44 1.646-.656 2.664-.646zm.007 1.846c-.554 0-1.054.138-1.499.412-.44.27-.788.637-1.044 1.101a3.097 3.097 0 0 0-.384 1.534c0 .564.124 1.075.37 1.534.251.455.592.817 1.023 1.087.435.265.932.398 1.491.398a2.82 2.82 0 0 0 1.165-.242c.36-.161.674-.383.944-.667.27-.289.481-.616.632-.981.152-.364.228-.748.228-1.15 0-.535-.128-1.032-.384-1.492a2.99 2.99 0 0 0-1.037-1.108 2.715 2.715 0 0 0-1.505-.426zm12.785 13.097c-1.018 0-1.917-.175-2.698-.526-.777-.35-1.385-.833-1.826-1.449a3.484 3.484 0 0 1-.653-2.102 3.71 3.71 0 0 1 1.435-2.997c.445-.35.942-.573 1.491-.668v-.085a2.934 2.934 0 0 1-1.74-1.165c-.436-.601-.651-1.292-.646-2.073-.005-.744.191-1.407.589-1.989.403-.587.954-1.049 1.655-1.385.701-.336 1.499-.504 2.393-.504.886 0 1.677.17 2.373.511.7.336 1.252.798 1.654 1.385.403.582.607 1.243.611 1.982a3.45 3.45 0 0 1-.667 2.073 2.96 2.96 0 0 1-1.719 1.165v.085a3.191 3.191 0 0 1 1.47.668c.44.346.791.779 1.051 1.3.265.516.4 1.082.405 1.697a3.557 3.557 0 0 1-.668 2.102c-.44.616-1.051 1.099-1.832 1.449-.776.351-1.669.526-2.678.526zm0-1.797c.602 0 1.123-.099 1.563-.298.44-.204.781-.486 1.023-.845.241-.365.364-.791.369-1.279a2.39 2.39 0 0 0-.398-1.342 2.644 2.644 0 0 0-1.044-.916c-.44-.223-.944-.334-1.513-.334-.572 0-1.081.111-1.527.334a2.645 2.645 0 0 0-1.051.916 2.344 2.344 0 0 0-.376 1.342c-.005.488.111.914.348 1.279.241.359.585.641 1.03.845.445.199.97.298 1.576.298zm0-6.768c.483 0 .912-.098 1.286-.292.374-.194.668-.464.881-.809.217-.346.329-.751.333-1.215a2.244 2.244 0 0 0-.326-1.193 2.075 2.075 0 0 0-.874-.788c-.374-.19-.807-.284-1.3-.284-.501 0-.942.094-1.321.284a2.067 2.067 0 0 0-.873.788c-.208.341-.31.739-.306 1.193-.004.464.1.869.313 1.215.213.345.507.615.881.809.378.194.814.292 1.306.292z"/><path fill="#A1A1A1" d="M352.121 324.273v-12.728h.816v12.728h-.816zm2.551-8.78a1.454 1.454 0 0 0-.656-1.094c-.385-.262-.869-.393-1.452-.393-.418 0-.779.067-1.084.199-.305.13-.542.308-.711.537a1.266 1.266 0 0 0-.248.771c0 .242.056.451.169.626.116.176.266.323.452.443.189.116.391.213.607.293.215.076.422.139.621.189l.994.258c.325.08.658.188 1 .324.341.135.658.314.949.537.292.222.527.497.706.825.182.328.274.721.274 1.178 0 .577-.15 1.089-.448 1.536-.295.448-.724.801-1.287 1.059-.561.259-1.238.388-2.034.388-.762 0-1.422-.121-1.979-.363-.556-.242-.992-.585-1.307-1.029-.315-.447-.489-.978-.522-1.591h1.541c.03.368.149.675.358.92.212.242.482.422.81.542.332.116.695.174 1.089.174.434 0 .821-.068 1.159-.204.341-.139.609-.332.805-.577.196-.248.293-.538.293-.87 0-.301-.086-.548-.258-.741a1.918 1.918 0 0 0-.691-.477 6.752 6.752 0 0 0-.98-.333l-1.203-.328c-.815-.222-1.461-.549-1.939-.98-.474-.43-.711-1-.711-1.71 0-.586.159-1.098.478-1.536a3.14 3.14 0 0 1 1.292-1.019c.544-.245 1.157-.368 1.84-.368.689 0 1.297.121 1.824.363.531.242.948.575 1.253.999.305.421.464.905.477 1.452h-1.481zm6.678 7.646c-.623 0-1.183-.119-1.68-.358a3.054 3.054 0 0 1-1.184-.994 2.627 2.627 0 0 1-.472-1.442h1.492c.036.438.23.797.581 1.079.352.282.772.423 1.263.423.391 0 .737-.09 1.039-.269.305-.182.544-.432.716-.751a2.21 2.21 0 0 0 .263-1.088c0-.415-.089-.784-.268-1.109a1.984 1.984 0 0 0-.741-.766 2.092 2.092 0 0 0-1.074-.283c-.308 0-.618.053-.929.159a2.145 2.145 0 0 0-.756.418l-1.407-.209.572-5.131h5.598v1.318h-4.321l-.323 2.848h.06c.199-.192.462-.353.79-.482a2.913 2.913 0 0 1 1.064-.194c.62 0 1.172.148 1.656.443.487.295.87.697 1.148 1.208.282.507.421 1.09.418 1.75.003.659-.146 1.248-.448 1.765a3.243 3.243 0 0 1-1.242 1.223c-.527.295-1.132.442-1.815.442zm8.866.03c-.786-.003-1.457-.21-2.014-.621-.557-.411-.983-1.01-1.278-1.795-.295-.786-.442-1.732-.442-2.839 0-1.104.147-2.047.442-2.829.299-.782.726-1.379 1.283-1.79.56-.411 1.23-.616 2.009-.616.778 0 1.446.207 2.003.621.557.411.983 1.008 1.278 1.79.298.779.447 1.72.447 2.824 0 1.11-.147 2.058-.442 2.844-.295.782-.721 1.38-1.278 1.795-.557.411-1.226.616-2.008.616zm0-1.327c.689 0 1.228-.337 1.615-1.01.391-.672.587-1.645.587-2.918 0-.845-.09-1.559-.268-2.143-.176-.586-.43-1.03-.761-1.332a1.663 1.663 0 0 0-1.173-.457c-.687 0-1.225.338-1.616 1.014-.391.676-.589 1.649-.592 2.918 0 .849.088 1.566.264 2.153.179.583.432 1.026.76 1.327a1.7 1.7 0 0 0 1.184.448zm9.037 1.327c-.786-.003-1.457-.21-2.014-.621-.557-.411-.983-1.01-1.278-1.795-.295-.786-.442-1.732-.442-2.839 0-1.104.147-2.047.442-2.829.299-.782.726-1.379 1.283-1.79.56-.411 1.23-.616 2.009-.616.779 0 1.446.207 2.003.621.557.411.983 1.008 1.278 1.79.298.779.447 1.72.447 2.824 0 1.11-.147 2.058-.442 2.844-.295.782-.721 1.38-1.278 1.795-.557.411-1.226.616-2.008.616zm0-1.327c.689 0 1.228-.337 1.615-1.01.392-.672.587-1.645.587-2.918 0-.845-.089-1.559-.268-2.143-.176-.586-.43-1.03-.761-1.332a1.663 1.663 0 0 0-1.173-.457c-.686 0-1.225.338-1.616 1.014-.391.676-.588 1.649-.592 2.918 0 .849.088 1.566.264 2.153.179.583.432 1.026.76 1.327.329.298.723.448 1.184.448z"/><path fill="#A2A2A2" d="M25.119 323v-10.182h3.728c.723 0 1.321.119 1.795.358.474.235.829.555 1.064.96.235.401.353.853.353 1.357 0 .424-.078.782-.234 1.074a1.93 1.93 0 0 1-.626.696 2.78 2.78 0 0 1-.855.378v.099c.338.017.668.126.99.328.324.199.592.482.805.85.212.368.318.816.318 1.343 0 .52-.123.987-.368 1.402-.242.411-.617.737-1.124.979-.507.239-1.155.358-1.944.358H25.12zm1.536-1.317h2.217c.736 0 1.263-.143 1.581-.428.318-.285.477-.641.477-1.069a1.68 1.68 0 0 0-.243-.885 1.742 1.742 0 0 0-.696-.641c-.299-.159-.653-.239-1.064-.239h-2.272v3.262zm0-4.46h2.058c.345 0 .655-.066.93-.199a1.62 1.62 0 0 0 .661-.557c.166-.242.249-.527.249-.855 0-.421-.148-.774-.443-1.059-.295-.285-.747-.427-1.357-.427h-2.098v3.097zm9.727 5.946a3.12 3.12 0 0 1-1.313-.268 2.215 2.215 0 0 1-.93-.791c-.225-.345-.338-.767-.338-1.268 0-.431.083-.785.25-1.064.165-.278.389-.498.67-.661a3.53 3.53 0 0 1 .945-.368 9.34 9.34 0 0 1 1.064-.189l1.113-.129c.285-.036.493-.094.622-.174.13-.079.194-.209.194-.388v-.034c0-.435-.123-.771-.368-1.01-.242-.238-.603-.358-1.084-.358-.5 0-.895.111-1.183.333-.285.219-.483.463-.592.731l-1.397-.318c.166-.464.408-.838.726-1.124a2.945 2.945 0 0 1 1.109-.626 4.315 4.315 0 0 1 1.317-.199c.305 0 .628.037.97.11.344.069.666.198.964.387.302.189.549.459.74.811.193.348.29.8.29 1.357V323h-1.453v-1.044h-.06c-.095.192-.24.381-.432.567a2.314 2.314 0 0 1-.74.462c-.302.123-.663.184-1.084.184zm.323-1.193c.41 0 .762-.081 1.054-.244a1.7 1.7 0 0 0 .671-.636 1.65 1.65 0 0 0 .234-.85v-.985c-.053.053-.156.103-.309.15a4.79 4.79 0 0 1-.512.114c-.192.03-.38.058-.561.084l-.458.06a3.67 3.67 0 0 0-.79.184 1.35 1.35 0 0 0-.567.373c-.14.159-.209.371-.209.636 0 .368.136.647.408.835.272.186.618.279 1.039.279zm6.912-9.158V323H42.13v-10.182h1.487zm4.222 10.351a3.12 3.12 0 0 1-1.313-.268 2.215 2.215 0 0 1-.93-.791c-.225-.345-.337-.767-.337-1.268 0-.431.082-.785.248-1.064.166-.278.39-.498.671-.661a3.53 3.53 0 0 1 .945-.368 9.339 9.339 0 0 1 1.064-.189l1.113-.129c.286-.036.493-.094.622-.174.13-.079.194-.209.194-.388v-.034c0-.435-.123-.771-.368-1.01-.242-.238-.603-.358-1.084-.358-.5 0-.895.111-1.183.333-.285.219-.482.463-.592.731l-1.397-.318c.166-.464.408-.838.726-1.124a2.945 2.945 0 0 1 1.109-.626 4.315 4.315 0 0 1 1.317-.199c.305 0 .628.037.97.11.344.069.666.198.964.387.302.189.549.459.74.811.193.348.29.8.29 1.357V323h-1.452v-1.044h-.06a2.11 2.11 0 0 1-.433.567 2.314 2.314 0 0 1-.74.462c-.302.123-.663.184-1.084.184zm.323-1.193c.41 0 .762-.081 1.054-.244.295-.162.519-.374.671-.636a1.65 1.65 0 0 0 .234-.85v-.985c-.053.053-.156.103-.309.15a4.78 4.78 0 0 1-.512.114c-.192.03-.38.058-.561.084l-.458.06a3.668 3.668 0 0 0-.79.184 1.35 1.35 0 0 0-.567.373c-.14.159-.209.371-.209.636 0 .368.136.647.408.835.272.186.618.279 1.039.279zm6.912-3.51V323h-1.487v-7.636h1.427v1.243h.094a2.18 2.18 0 0 1 .826-.975c.378-.245.853-.368 1.427-.368.52 0 .976.11 1.367.328.39.216.694.537.91.965.215.427.323.956.323 1.586V323h-1.487v-4.678c0-.554-.144-.986-.432-1.298-.289-.315-.685-.472-1.189-.472-.344 0-.65.074-.92.224a1.603 1.603 0 0 0-.63.656c-.153.285-.23.63-.23 1.034zm10.097 4.688c-.74 0-1.376-.167-1.91-.502a3.325 3.325 0 0 1-1.222-1.397c-.285-.593-.428-1.273-.428-2.038 0-.776.146-1.46.438-2.054a3.357 3.357 0 0 1 1.233-1.397c.53-.334 1.155-.502 1.874-.502.58 0 1.097.108 1.551.323.454.212.82.511 1.099.895.282.385.449.834.502 1.348h-1.447a1.732 1.732 0 0 0-.547-.925c-.281-.259-.66-.388-1.133-.388-.414 0-.777.109-1.089.328-.308.216-.548.524-.72.925-.173.398-.26.868-.26 1.412 0 .557.085 1.037.254 1.442.17.404.408.717.716.939.312.222.678.333 1.099.333.282 0 .537-.051.766-.154.232-.106.425-.257.581-.452.16-.196.27-.431.333-.706h1.447a2.81 2.81 0 0 1-.482 1.322 2.773 2.773 0 0 1-1.079.915c-.448.222-.973.333-1.576.333zm8.018 0c-.752 0-1.4-.161-1.944-.482a3.276 3.276 0 0 1-1.253-1.367c-.291-.59-.437-1.281-.437-2.073 0-.783.145-1.472.437-2.069a3.403 3.403 0 0 1 1.233-1.397c.53-.334 1.15-.502 1.86-.502.43 0 .848.071 1.252.214a3.04 3.04 0 0 1 1.09.671c.32.305.574.701.76 1.188.185.484.278 1.073.278 1.765v.527h-6.07v-1.113h4.614c0-.391-.08-.738-.24-1.039a1.8 1.8 0 0 0-.67-.721 1.873 1.873 0 0 0-1.005-.264c-.417 0-.782.103-1.093.308a2.077 2.077 0 0 0-.716.796 2.298 2.298 0 0 0-.249 1.059v.87c0 .51.09.944.269 1.302.182.358.435.632.76.821.325.185.705.278 1.139.278.282 0 .538-.04.77-.119a1.594 1.594 0 0 0 .99-.97l1.407.254a2.553 2.553 0 0 1-.607 1.089 2.95 2.95 0 0 1-1.089.721c-.434.169-.93.253-1.486.253zm5.905-.06a.966.966 0 0 1-.701-.288.962.962 0 0 1-.293-.706.94.94 0 0 1 .293-.696.959.959 0 0 1 .7-.293.96.96 0 0 1 .702.293.94.94 0 0 1 .293.696c0 .182-.046.35-.139.502-.09.149-.209.269-.358.358a.943.943 0 0 1-.497.134zm0-5.558a.959.959 0 0 1-.701-.293.957.957 0 0 1-.293-.701.94.94 0 0 1 .293-.696.955.955 0 0 1 .7-.293c.273 0 .506.097.702.293a.94.94 0 0 1 .293.696c0 .182-.046.35-.139.502a1.04 1.04 0 0 1-.358.358.952.952 0 0 1-.497.134z"/><path fill="#000" d="M89.31 323.169c-.786-.003-1.457-.21-2.014-.621-.557-.411-.983-1.01-1.278-1.795-.295-.786-.442-1.732-.442-2.839 0-1.104.147-2.047.442-2.829.298-.782.726-1.379 1.283-1.79.56-.411 1.23-.616 2.008-.616.78 0 1.447.207 2.004.621.557.411.983 1.008 1.278 1.79.298.779.447 1.72.447 2.824 0 1.11-.147 2.058-.442 2.844-.296.782-.721 1.38-1.278 1.795-.557.411-1.227.616-2.009.616zm0-1.327c.689 0 1.227-.337 1.615-1.01.391-.672.587-1.645.587-2.918 0-.845-.09-1.559-.269-2.143-.175-.586-.429-1.03-.76-1.332a1.664 1.664 0 0 0-1.174-.457c-.686 0-1.224.338-1.615 1.014-.392.676-.589 1.649-.592 2.918 0 .849.088 1.566.263 2.153.18.583.433 1.026.761 1.327a1.7 1.7 0 0 0 1.183.448zm9.036 1.327c-.785-.003-1.456-.21-2.013-.621-.557-.411-.983-1.01-1.278-1.795-.295-.786-.442-1.732-.442-2.839 0-1.104.147-2.047.442-2.829.298-.782.726-1.379 1.283-1.79.56-.411 1.23-.616 2.008-.616.78 0 1.447.207 2.004.621.557.411.983 1.008 1.278 1.79.298.779.447 1.72.447 2.824 0 1.11-.147 2.058-.442 2.844-.295.782-.721 1.38-1.278 1.795-.557.411-1.226.616-2.009.616zm0-1.327c.69 0 1.228-.337 1.616-1.01.391-.672.587-1.645.587-2.918 0-.845-.09-1.559-.269-2.143-.175-.586-.429-1.03-.76-1.332a1.664 1.664 0 0 0-1.174-.457c-.686 0-1.224.338-1.615 1.014-.391.676-.589 1.649-.592 2.918 0 .849.088 1.566.264 2.153.178.583.432 1.026.76 1.327a1.7 1.7 0 0 0 1.183.448zm6.123 1.252a.964.964 0 0 1-.701-.288.96.96 0 0 1-.293-.706c0-.272.097-.504.293-.696a.957.957 0 0 1 .701-.293c.272 0 .505.098.701.293a.941.941 0 0 1 .293.696c0 .182-.046.35-.139.502a1.023 1.023 0 0 1-.358.358.943.943 0 0 1-.497.134zm6.141.075c-.785-.003-1.457-.21-2.013-.621-.557-.411-.983-1.01-1.278-1.795-.295-.786-.443-1.732-.443-2.839 0-1.104.148-2.047.443-2.829.298-.782.726-1.379 1.283-1.79.56-.411 1.229-.616 2.008-.616.779 0 1.447.207 2.004.621.556.411.982 1.008 1.277 1.79.299.779.448 1.72.448 2.824 0 1.11-.148 2.058-.443 2.844-.295.782-.721 1.38-1.277 1.795-.557.411-1.227.616-2.009.616zm0-1.327c.689 0 1.228-.337 1.616-1.01.391-.672.586-1.645.586-2.918 0-.845-.089-1.559-.268-2.143-.176-.586-.429-1.03-.761-1.332a1.663 1.663 0 0 0-1.173-.457c-.686 0-1.225.338-1.616 1.014-.391.676-.588 1.649-.591 2.918 0 .849.088 1.566.263 2.153.179.583.433 1.026.761 1.327.328.298.722.448 1.183.448zm9.037 1.327c-.785-.003-1.456-.21-2.013-.621-.557-.411-.983-1.01-1.278-1.795-.295-.786-.442-1.732-.442-2.839 0-1.104.147-2.047.442-2.829.298-.782.726-1.379 1.283-1.79.56-.411 1.229-.616 2.008-.616.779 0 1.447.207 2.004.621.557.411.982 1.008 1.277 1.79.299.779.448 1.72.448 2.824 0 1.11-.148 2.058-.443 2.844-.295.782-.72 1.38-1.277 1.795-.557.411-1.227.616-2.009.616zm0-1.327c.69 0 1.228-.337 1.616-1.01.391-.672.587-1.645.587-2.918 0-.845-.09-1.559-.269-2.143-.176-.586-.429-1.03-.761-1.332a1.663 1.663 0 0 0-1.173-.457c-.686 0-1.224.338-1.616 1.014-.391.676-.588 1.649-.591 2.918 0 .849.088 1.566.263 2.153.179.583.433 1.026.761 1.327.328.298.722.448 1.183.448z"/><rect width="32" height="32" x="24" y="265" fill="#1E0FD1" rx="16"/><path fill="#fff" d="M35.636 280.432a1.385 1.385 0 0 0 1.305 1.458h.082c.768 0 1.388-.62 1.382-1.387 0-.768-.62-1.387-1.387-1.382-.735 0-1.343.576-1.382 1.311zm-5.164-.357a.448.448 0 1 0-.048.893.448.448 0 0 0 .048-.893zm5.078-7.682a.452.452 0 0 0 .197-.603.452.452 0 0 0-.603-.197.446.446 0 0 0-.198.598c.11.224.379.318.604.202 0 0-.006 0 0 0zm1.403 2.451a.691.691 0 0 0-.62-1.233.691.691 0 0 0 .62 1.233zm-4.726 1.684c.263.17.614.098.79-.165a.573.573 0 0 0-.165-.789.574.574 0 0 0-.79.164.568.568 0 0 0 .165.79zm.839 3.301a.688.688 0 0 0-.73.652.689.689 0 0 0 .653.729.691.691 0 1 0 .077-1.381zm-.763 4.644a.571.571 0 1 0 .515 1.02.571.571 0 0 0-.515-1.02zm2.687-6.076a.806.806 0 0 0 1.125-.236.807.807 0 0 0-.236-1.124.808.808 0 0 0-1.124.236.809.809 0 0 0 .236 1.124zm8.526-3.607c.318.208.752.12.96-.198a.695.695 0 0 0-.197-.959.695.695 0 0 0-.96.197.686.686 0 0 0 .197.96zm1.414-2.44a.446.446 0 0 0 .62-.132.445.445 0 0 0-.132-.619.448.448 0 0 0-.62.126.462.462 0 0 0 .132.625zm-1.31 6.76a1.382 1.382 0 0 0-1.458 1.305 1.383 1.383 0 0 0 1.305 1.459h.076c.763 0 1.382-.62 1.382-1.388a1.375 1.375 0 0 0-1.305-1.376zm-6.212-.812a1.385 1.385 0 0 0 2.62-.625 1.383 1.383 0 0 0-2.007-1.239 1.39 1.39 0 0 0-.613 1.864zm10.851-1.771a.57.57 0 1 0-.773-.252c.148.28.488.395.773.252zm-3.509.439a.813.813 0 1 0 1.091.362.818.818 0 0 0-1.091-.362zm-4.524-4.825a.577.577 0 0 0 .603-.537.574.574 0 0 0-.537-.603.573.573 0 0 0-.604.532.579.579 0 0 0 .538.608zm-.006 3.581a.808.808 0 0 0 .856-.768.807.807 0 0 0-.768-.855.807.807 0 0 0-.855.767.811.811 0 0 0 .767.856zm-4.407 8.312a.813.813 0 1 0-.73-1.453.813.813 0 0 0 .73 1.453zm4.934-7.123a1.38 1.38 0 0 0 .4 1.914 1.38 1.38 0 0 0 1.914-.401 1.38 1.38 0 0 0-1.157-2.138c-.466 0-.9.236-1.157.625zm2.407 5.791a1.38 1.38 0 0 0-1.859-.614 1.381 1.381 0 0 0-.614 1.858 1.38 1.38 0 0 0 1.859.614c.68-.34.96-1.162.62-1.847 0-.006 0-.006-.006-.011zm2.418-.099a.807.807 0 0 0-1.124.235.807.807 0 0 0 .236 1.124.807.807 0 0 0 1.124-.235.809.809 0 0 0-.236-1.124zm2.654-2.078a.689.689 0 0 0-.653-.729.688.688 0 0 0-.729.652.689.689 0 0 0 .653.729.696.696 0 0 0 .729-.652zm1.913-.494a.448.448 0 1 0 .422.472.452.452 0 0 0-.422-.472zm-1.804 4.441a.574.574 0 0 0-.79.165.573.573 0 0 0 .165.789c.263.17.614.099.79-.164a.568.568 0 0 0-.165-.79zm-12.709 4.179a.449.449 0 0 0-.62.126.448.448 0 0 0 .746.493.44.44 0 0 0-.126-.619zm9.386-.045a.452.452 0 0 0-.197.603c.11.22.384.308.603.198a.446.446 0 0 0 .197-.598.443.443 0 0 0-.603-.203c.006 0 0 0 0 0zm-5.197-4.517a1.387 1.387 0 1 0-1.92.4c.225.148.489.225.757.225.472.005.905-.231 1.163-.625zm-2.769 2.121a.696.696 0 0 0-.96.198.695.695 0 0 0 .198.959.695.695 0 0 0 .96-.197.687.687 0 0 0-.198-.96zm3.229 2.649a.578.578 0 0 0-.603.537.574.574 0 0 0 .537.603.573.573 0 0 0 .603-.532.579.579 0 0 0-.537-.608zm.007-3.58a.807.807 0 0 0-.856.767.808.808 0 0 0 .768.856.811.811 0 0 0 .855-.768.81.81 0 0 0-.767-.855zm3.328.877a.692.692 0 1 0 .63 1.233.691.691 0 0 0 .307-.926.699.699 0 0 0-.937-.307z"/><path fill="#000" d="m131 90.781 3.299-3.3.943.943L131 92.667l-4.243-4.243.943-.943 3.3 3.3zm-17 190 3.299-3.3.943.943-4.242 4.243-4.243-4.243.943-.943 3.3 3.3zM25.119 232v-10.182h3.629c.789 0 1.443.136 1.964.408.523.272.914.648 1.173 1.128.259.478.388 1.03.388 1.656 0 .623-.131 1.172-.393 1.646-.259.47-.65.836-1.173 1.098-.52.262-1.175.393-1.964.393h-2.75v-1.322h2.61c.498 0 .902-.072 1.214-.214a1.41 1.41 0 0 0 .69-.622c.147-.271.22-.598.22-.979 0-.385-.075-.718-.224-.999a1.444 1.444 0 0 0-.691-.647c-.312-.152-.721-.228-1.228-.228h-1.93V232H25.12zm5.026-4.594L32.66 232h-1.75l-2.465-4.594h1.7zm7.073 4.748c-.752 0-1.4-.161-1.944-.482a3.276 3.276 0 0 1-1.252-1.367c-.292-.59-.438-1.281-.438-2.073 0-.783.146-1.472.438-2.069a3.403 3.403 0 0 1 1.232-1.397c.53-.334 1.15-.502 1.86-.502.43 0 .848.071 1.253.214a3.04 3.04 0 0 1 1.088.671c.322.305.576.701.761 1.188.186.484.279 1.073.279 1.765v.527h-6.07v-1.113h4.613c0-.391-.08-.738-.239-1.039a1.8 1.8 0 0 0-.671-.721 1.873 1.873 0 0 0-1.004-.264c-.418 0-.782.103-1.094.308a2.077 2.077 0 0 0-.716.796 2.298 2.298 0 0 0-.248 1.059v.87c0 .51.089.944.268 1.302.182.358.436.632.76.821.325.185.705.278 1.14.278.28 0 .538-.04.77-.119a1.594 1.594 0 0 0 .99-.97l1.406.254a2.553 2.553 0 0 1-.606 1.089 2.951 2.951 0 0 1-1.09.721c-.434.169-.929.253-1.486.253zm8.142 0c-.739 0-1.375-.167-1.909-.502a3.326 3.326 0 0 1-1.223-1.397c-.285-.593-.427-1.273-.427-2.038 0-.776.146-1.46.437-2.054a3.356 3.356 0 0 1 1.233-1.397c.53-.334 1.155-.502 1.875-.502.58 0 1.097.108 1.55.323.455.212.821.511 1.1.895.281.385.448.834.502 1.348H47.05a1.733 1.733 0 0 0-.547-.925c-.282-.259-.66-.388-1.134-.388-.414 0-.777.109-1.088.328-.309.216-.549.524-.721.925-.173.398-.259.868-.259 1.412 0 .557.085 1.037.254 1.442.169.404.407.717.716.939.311.222.678.333 1.098.333.282 0 .537-.051.766-.154a1.57 1.57 0 0 0 .582-.452c.159-.196.27-.431.333-.706h1.447a2.81 2.81 0 0 1-.483 1.322 2.773 2.773 0 0 1-1.079.915c-.447.222-.972.333-1.576.333zm8.018 0c-.752 0-1.4-.161-1.944-.482a3.275 3.275 0 0 1-1.252-1.367c-.292-.59-.438-1.281-.438-2.073 0-.783.146-1.472.438-2.069a3.403 3.403 0 0 1 1.233-1.397c.53-.334 1.15-.502 1.859-.502.43 0 .849.071 1.253.214a3.04 3.04 0 0 1 1.089.671c.321.305.575.701.76 1.188.186.484.279 1.073.279 1.765v.527h-6.07v-1.113h4.613c0-.391-.08-.738-.239-1.039a1.8 1.8 0 0 0-.67-.721 1.873 1.873 0 0 0-1.005-.264c-.418 0-.782.103-1.094.308a2.076 2.076 0 0 0-.716.796 2.296 2.296 0 0 0-.248 1.059v.87c0 .51.09.944.268 1.302.182.358.436.632.76.821.326.185.705.278 1.14.278.281 0 .538-.04.77-.119a1.593 1.593 0 0 0 .99-.97l1.406.254a2.554 2.554 0 0 1-.606 1.089 2.951 2.951 0 0 1-1.09.721c-.433.169-.929.253-1.486.253zm4.926-.154v-7.636h1.486V232h-1.486zm.75-8.815a.946.946 0 0 1-.666-.258.842.842 0 0 1-.273-.627.83.83 0 0 1 .273-.626.933.933 0 0 1 .667-.263c.258 0 .479.087.66.263a.823.823 0 0 1 .28.626.835.835 0 0 1-.28.627.929.929 0 0 1-.66.258zm9.269 1.179L65.553 232h-1.59l-2.774-7.636h1.596l1.934 5.876h.08l1.928-5.876h1.596zm4.428 7.79c-.752 0-1.4-.161-1.944-.482a3.276 3.276 0 0 1-1.252-1.367c-.292-.59-.438-1.281-.438-2.073 0-.783.146-1.472.438-2.069a3.403 3.403 0 0 1 1.233-1.397c.53-.334 1.15-.502 1.859-.502.43 0 .849.071 1.253.214a3.04 3.04 0 0 1 1.089.671c.321.305.575.701.76 1.188.186.484.279 1.073.279 1.765v.527h-6.07v-1.113h4.613c0-.391-.08-.738-.239-1.039a1.8 1.8 0 0 0-.67-.721 1.873 1.873 0 0 0-1.005-.264c-.418 0-.782.103-1.094.308a2.077 2.077 0 0 0-.716.796 2.298 2.298 0 0 0-.248 1.059v.87c0 .51.09.944.268 1.302.182.358.436.632.76.821.326.185.705.278 1.14.278.281 0 .538-.04.77-.119a1.594 1.594 0 0 0 .99-.97l1.406.254a2.553 2.553 0 0 1-.606 1.089 2.95 2.95 0 0 1-1.09.721c-.433.169-.929.253-1.486.253z"/><rect width="415" height="402" x=".5" y=".5" stroke="#F2F2F2" rx="15.5"/><path fill="#A2A2A2" d="M25.119 133v-10.182h3.728c.723 0 1.321.119 1.795.358.474.235.829.555 1.064.96.235.401.353.853.353 1.357 0 .424-.078.782-.234 1.074a1.93 1.93 0 0 1-.626.696 2.78 2.78 0 0 1-.855.378v.099c.338.017.668.126.99.328.324.199.592.482.805.85.212.368.318.816.318 1.343 0 .52-.123.987-.368 1.402-.242.411-.617.737-1.124.979-.507.239-1.155.358-1.944.358H25.12zm1.536-1.317h2.217c.736 0 1.263-.143 1.581-.428.318-.285.477-.641.477-1.069a1.68 1.68 0 0 0-.243-.885 1.742 1.742 0 0 0-.696-.641c-.299-.159-.653-.239-1.064-.239h-2.272v3.262zm0-4.46h2.058c.345 0 .655-.066.93-.199a1.62 1.62 0 0 0 .661-.557c.166-.242.249-.527.249-.855 0-.421-.148-.774-.443-1.059-.295-.285-.747-.427-1.357-.427h-2.098v3.097zm9.727 5.946a3.12 3.12 0 0 1-1.313-.268 2.215 2.215 0 0 1-.93-.791c-.225-.345-.338-.767-.338-1.268 0-.431.083-.785.25-1.064.165-.278.389-.498.67-.661a3.53 3.53 0 0 1 .945-.368 9.34 9.34 0 0 1 1.064-.189l1.113-.129c.285-.036.493-.094.622-.174.13-.079.194-.209.194-.388v-.034c0-.435-.123-.771-.368-1.01-.242-.238-.603-.358-1.084-.358-.5 0-.895.111-1.183.333-.285.219-.483.463-.592.731l-1.397-.318c.166-.464.408-.838.726-1.124a2.945 2.945 0 0 1 1.109-.626 4.315 4.315 0 0 1 1.317-.199c.305 0 .628.037.97.11.344.069.666.198.964.387.302.189.549.459.74.811.193.348.29.8.29 1.357V133h-1.453v-1.044h-.06c-.095.192-.24.381-.432.567a2.314 2.314 0 0 1-.74.462c-.302.123-.663.184-1.084.184zm.323-1.193c.41 0 .762-.081 1.054-.244a1.7 1.7 0 0 0 .671-.636 1.65 1.65 0 0 0 .234-.85v-.985c-.053.053-.156.103-.309.15a4.79 4.79 0 0 1-.512.114c-.192.03-.38.058-.561.084l-.458.06a3.67 3.67 0 0 0-.79.184 1.35 1.35 0 0 0-.567.373c-.14.159-.209.371-.209.636 0 .368.136.647.408.835.272.186.618.279 1.039.279zm6.912-9.158V133H42.13v-10.182h1.487zm4.222 10.351a3.12 3.12 0 0 1-1.313-.268 2.215 2.215 0 0 1-.93-.791c-.225-.345-.337-.767-.337-1.268 0-.431.082-.785.248-1.064.166-.278.39-.498.671-.661a3.53 3.53 0 0 1 .945-.368 9.339 9.339 0 0 1 1.064-.189l1.113-.129c.286-.036.493-.094.622-.174.13-.079.194-.209.194-.388v-.034c0-.435-.123-.771-.368-1.01-.242-.238-.603-.358-1.084-.358-.5 0-.895.111-1.183.333-.285.219-.482.463-.592.731l-1.397-.318c.166-.464.408-.838.726-1.124a2.945 2.945 0 0 1 1.109-.626 4.315 4.315 0 0 1 1.317-.199c.305 0 .628.037.97.11.344.069.666.198.964.387.302.189.549.459.74.811.193.348.29.8.29 1.357V133h-1.452v-1.044h-.06a2.11 2.11 0 0 1-.433.567 2.314 2.314 0 0 1-.74.462c-.302.123-.663.184-1.084.184zm.323-1.193c.41 0 .762-.081 1.054-.244.295-.162.519-.374.671-.636a1.65 1.65 0 0 0 .234-.85v-.985c-.053.053-.156.103-.309.15a4.78 4.78 0 0 1-.512.114c-.192.03-.38.058-.561.084l-.458.06a3.668 3.668 0 0 0-.79.184 1.35 1.35 0 0 0-.567.373c-.14.159-.209.371-.209.636 0 .368.136.647.408.835.272.186.618.279 1.039.279zm6.912-3.51V133h-1.487v-7.636h1.427v1.243h.094a2.18 2.18 0 0 1 .826-.975c.378-.245.853-.368 1.427-.368.52 0 .976.11 1.367.328.39.216.694.537.91.965.215.427.323.956.323 1.586V133h-1.487v-4.678c0-.554-.144-.986-.432-1.298-.289-.315-.685-.472-1.189-.472-.344 0-.65.074-.92.224a1.603 1.603 0 0 0-.63.656c-.153.285-.23.63-.23 1.034zm10.097 4.688c-.74 0-1.376-.167-1.91-.502a3.325 3.325 0 0 1-1.222-1.397c-.285-.593-.428-1.273-.428-2.038 0-.776.146-1.46.438-2.054a3.357 3.357 0 0 1 1.233-1.397c.53-.334 1.155-.502 1.874-.502.58 0 1.097.108 1.551.323.454.212.82.511 1.099.895.282.385.449.834.502 1.348h-1.447a1.732 1.732 0 0 0-.547-.925c-.281-.259-.66-.388-1.133-.388-.414 0-.777.109-1.089.328-.308.216-.548.524-.72.925-.173.398-.26.868-.26 1.412 0 .557.085 1.037.254 1.442.17.404.408.717.716.939.312.222.678.333 1.099.333.282 0 .537-.051.766-.154.232-.106.425-.257.581-.452.16-.196.27-.431.333-.706h1.447a2.81 2.81 0 0 1-.482 1.322 2.773 2.773 0 0 1-1.079.915c-.448.222-.973.333-1.576.333zm8.018 0c-.752 0-1.4-.161-1.944-.482a3.276 3.276 0 0 1-1.253-1.367c-.291-.59-.437-1.281-.437-2.073 0-.783.145-1.472.437-2.069a3.403 3.403 0 0 1 1.233-1.397c.53-.334 1.15-.502 1.86-.502.43 0 .848.071 1.252.214a3.04 3.04 0 0 1 1.09.671c.32.305.574.701.76 1.188.185.484.278 1.073.278 1.765v.527h-6.07v-1.113h4.614c0-.391-.08-.738-.24-1.039a1.8 1.8 0 0 0-.67-.721 1.873 1.873 0 0 0-1.005-.264c-.417 0-.782.103-1.093.308a2.077 2.077 0 0 0-.716.796 2.298 2.298 0 0 0-.249 1.059v.87c0 .51.09.944.269 1.302.182.358.435.632.76.821.325.185.705.278 1.139.278.282 0 .538-.04.77-.119a1.594 1.594 0 0 0 .99-.97l1.407.254a2.553 2.553 0 0 1-.607 1.089 2.95 2.95 0 0 1-1.089.721c-.434.169-.93.253-1.486.253zm5.905-.06a.966.966 0 0 1-.701-.288.962.962 0 0 1-.293-.706.94.94 0 0 1 .293-.696.959.959 0 0 1 .7-.293.96.96 0 0 1 .702.293.94.94 0 0 1 .293.696c0 .182-.046.35-.139.502-.09.149-.209.269-.358.358a.943.943 0 0 1-.497.134zm0-5.558a.959.959 0 0 1-.701-.293.957.957 0 0 1-.293-.701.94.94 0 0 1 .293-.696.955.955 0 0 1 .7-.293c.273 0 .506.097.702.293a.94.94 0 0 1 .293.696c0 .182-.046.35-.139.502a1.04 1.04 0 0 1-.358.358.952.952 0 0 1-.497.134z"/><path fill="#000" d="M89.125 133.139c-.623 0-1.183-.119-1.68-.358a3.053 3.053 0 0 1-1.183-.994 2.627 2.627 0 0 1-.473-1.442h1.492c.036.438.23.797.582 1.079.35.282.772.423 1.262.423.391 0 .738-.09 1.04-.269a1.92 1.92 0 0 0 .715-.751 2.21 2.21 0 0 0 .264-1.088c0-.415-.09-.784-.269-1.109a1.984 1.984 0 0 0-.74-.766 2.095 2.095 0 0 0-1.074-.283c-.309 0-.618.053-.93.159a2.15 2.15 0 0 0-.756.418l-1.407-.209.572-5.131h5.598v1.318h-4.32l-.323 2.848h.06c.198-.192.462-.353.79-.482a2.908 2.908 0 0 1 1.064-.194c.62 0 1.171.148 1.655.443.488.295.87.697 1.149 1.208.281.507.42 1.09.417 1.75.004.659-.145 1.248-.447 1.765a3.246 3.246 0 0 1-1.243 1.223c-.527.295-1.132.442-1.815.442zm8.866.03c-.786-.003-1.457-.21-2.013-.621-.557-.411-.983-1.01-1.278-1.795-.295-.786-.443-1.732-.443-2.839 0-1.104.148-2.047.443-2.829.298-.782.726-1.379 1.282-1.79.56-.411 1.23-.616 2.009-.616.779 0 1.447.207 2.004.621.556.411.982 1.008 1.277 1.79.298.779.448 1.72.448 2.824 0 1.11-.148 2.058-.443 2.844-.295.782-.721 1.38-1.278 1.795-.556.411-1.226.616-2.008.616zm0-1.327c.69 0 1.228-.337 1.616-1.01.39-.672.586-1.645.586-2.918 0-.845-.089-1.559-.268-2.143-.176-.586-.43-1.03-.76-1.332a1.664 1.664 0 0 0-1.174-.457c-.686 0-1.225.338-1.616 1.014-.39.676-.588 1.649-.591 2.918 0 .849.087 1.566.263 2.153.179.583.433 1.026.76 1.327a1.7 1.7 0 0 0 1.184.448zm6.122 1.252a.968.968 0 0 1-.701-.288.964.964 0 0 1-.293-.706c0-.272.098-.504.293-.696a.96.96 0 0 1 .701-.293c.272 0 .506.098.701.293a.939.939 0 0 1 .294.696c0 .182-.047.35-.139.502-.09.149-.209.269-.358.358a.946.946 0 0 1-.498.134zm6.142.075c-.786-.003-1.457-.21-2.014-.621-.557-.411-.983-1.01-1.278-1.795-.295-.786-.442-1.732-.442-2.839 0-1.104.147-2.047.442-2.829.299-.782.726-1.379 1.283-1.79.56-.411 1.23-.616 2.009-.616.778 0 1.446.207 2.003.621.557.411.983 1.008 1.278 1.79.298.779.447 1.72.447 2.824 0 1.11-.147 2.058-.442 2.844-.295.782-.721 1.38-1.278 1.795-.557.411-1.226.616-2.008.616zm0-1.327c.689 0 1.228-.337 1.615-1.01.391-.672.587-1.645.587-2.918 0-.845-.089-1.559-.268-2.143-.176-.586-.43-1.03-.761-1.332a1.663 1.663 0 0 0-1.173-.457c-.686 0-1.225.338-1.616 1.014-.391.676-.588 1.649-.592 2.918 0 .849.088 1.566.264 2.153.179.583.432 1.026.76 1.327.329.298.723.448 1.184.448zm9.037 1.297c-.683 0-1.293-.117-1.83-.353-.533-.235-.956-.562-1.268-.979a2.6 2.6 0 0 1-.497-1.462h1.561c.02.302.121.564.304.786.185.218.427.387.725.507.299.119.63.179.995.179.401 0 .755-.07 1.064-.209a1.74 1.74 0 0 0 .731-.582c.175-.252.263-.542.263-.87a1.57 1.57 0 0 0-.263-.9 1.723 1.723 0 0 0-.761-.616c-.332-.149-.733-.224-1.203-.224h-.86v-1.253h.86c.378 0 .709-.068.994-.203a1.63 1.63 0 0 0 .676-.567c.163-.246.244-.532.244-.86 0-.315-.071-.589-.214-.821a1.43 1.43 0 0 0-.597-.551 1.929 1.929 0 0 0-.904-.199c-.332 0-.642.061-.93.184a1.708 1.708 0 0 0-.696.517 1.327 1.327 0 0 0-.288.8h-1.487c.017-.55.179-1.034.487-1.452a3.159 3.159 0 0 1 1.233-.979 4.019 4.019 0 0 1 1.7-.353c.653 0 1.217.128 1.691.383.477.252.845.588 1.104 1.009.261.421.391.882.387 1.382.004.57-.155 1.054-.477 1.452-.318.398-.742.664-1.273.8v.08c.676.103 1.2.371 1.571.805.375.434.56.973.557 1.616a2.514 2.514 0 0 1-.467 1.506 3.187 3.187 0 0 1-1.278 1.049c-.54.252-1.158.378-1.854.378z"/></g><defs><clipPath id="a"><rect width="416" height="403" fill="#fff" rx="16"/></clipPath><clipPath id="b"><path fill="#fff" d="M29.242 81.64h21.319v18.599H29.242z"/></clipPath></defs></svg>